<svg width="1920" height="1196" viewBox="0 0 1920 1196" fill="none" xmlns="http://www.w3.org/2000/svg">
<g opacity="0.05">
<path d="M1065.22 755.291C1032.24 791.907 1044.05 849.865 1074.29 883.448C1104.54 917.031 1156.84 930.247 1189.81 893.632C1222.79 857.016 1210.89 798.948 1180.64 765.366C1150.4 731.783 1098.2 718.675 1065.22 755.291ZM1186.2 889.623C1158.89 919.956 1112.35 887.999 1091.27 864.599C1070.2 841.198 1040.05 791.258 1068.83 759.299C1097.61 727.341 1142.49 760.707 1163.67 784.215C1184.84 807.723 1213.52 859.289 1186.2 889.623Z" fill="#FFFCF4"/>
<path d="M780.522 1071.41C747.545 1108.02 759.35 1165.98 789.595 1199.56C819.841 1233.14 872.137 1246.36 905.114 1209.75C938.091 1173.13 926.188 1115.06 895.942 1081.48C865.697 1047.9 813.499 1034.79 780.522 1071.41ZM900.918 1205.09C873.6 1235.42 827.645 1204.11 806.572 1180.71C785.498 1157.31 755.934 1108.02 784.717 1076.06C813.499 1044.1 857.794 1076.82 878.966 1100.33C900.138 1123.84 928.238 1174.75 900.918 1205.09Z" fill="#FFFCF4"/>
<path d="M1024.39 805.937L1037.95 820.995L1001.07 842.228L1116.2 970.06L1100.59 987.394L985.46 859.562L966.434 900.403L952.872 885.345L1024.39 805.937Z" fill="#FFFCF4"/>
<path d="M897.942 946.336L911.406 961.286L874.624 982.627L989.752 1110.46L974.239 1127.68L859.014 999.96L839.988 1040.59L826.523 1025.64L897.942 946.336Z" fill="#FFFCF4"/>
<path d="M1070.68 1020.6L1086.98 1002.51L936.677 903.328L921.164 920.553L1000.09 1098.98L1016.1 1081.21L983.707 1022.49L1017.82 984.618L1070.68 1020.6L1070.68 1020.6ZM980.372 1016.44L929.751 924.668L1012.38 980.909L980.374 1016.44L980.372 1016.44Z" fill="#FFFCF4"/>
<path d="M802.327 1318.57L754.032 1264.94C780.57 1235.48 782.228 1203.08 760.081 1178.49C737.934 1153.9 709.249 1155.85 682.516 1185.54L666.906 1202.87L786.718 1335.9L802.328 1318.57L802.327 1318.57ZM686.32 1189.76C687.296 1188.68 688.369 1187.92 689.247 1186.94C702.321 1172.43 726.908 1177.63 744.567 1197.23C762.226 1216.84 765.348 1240.68 751.494 1256.06C750.616 1257.03 749.738 1258.22 748.86 1259.2L686.319 1189.76L686.32 1189.76Z" fill="#FFFCF4"/>
<path d="M303.129 777.628C270.152 814.244 281.957 872.202 312.202 905.785C342.447 939.368 394.743 952.584 427.72 915.968C460.697 879.353 448.794 821.285 418.549 787.703C388.304 754.12 336.105 741.012 303.129 777.628ZM424.11 911.96C396.792 942.293 350.253 910.336 329.178 886.935C308.103 863.535 277.956 813.595 306.738 781.636C335.521 749.678 380.401 783.044 401.573 806.552C422.745 830.06 451.43 881.626 424.11 911.96Z" fill="#FFFCF4"/>
<path d="M18.4303 1093.74C-14.5466 1130.36 -2.74155 1188.32 27.5036 1221.9C57.7488 1255.48 110.045 1268.7 143.022 1232.08C175.999 1195.47 164.096 1137.4 133.851 1103.82C103.605 1070.23 51.4072 1057.13 18.4303 1093.74ZM138.826 1227.42C111.508 1257.76 65.5533 1226.45 44.4797 1203.05C23.4061 1179.65 -6.15736 1130.36 22.6249 1098.4C51.4072 1066.44 95.7027 1099.16 116.875 1122.67C138.046 1146.17 166.146 1197.09 138.826 1227.42Z" fill="#FFFCF4"/>
<path d="M262.299 828.274L275.86 843.331L238.981 864.565L354.109 992.397L338.498 1009.73L223.37 881.899L204.344 922.74L190.782 907.682L262.299 828.274Z" fill="#FFFCF4"/>
<path d="M135.851 968.673L149.315 983.623L112.533 1004.96L227.661 1132.8L212.148 1150.02L96.923 1022.3L77.897 1062.92L64.4326 1047.97L135.851 968.673Z" fill="#FFFCF4"/>
<path d="M308.592 1042.94L324.889 1024.84L174.586 925.665L159.073 942.89L238.004 1121.31L254.005 1103.55L221.616 1044.83L255.726 1006.95L308.591 1042.94L308.592 1042.94ZM218.282 1038.78L167.66 947.005L250.284 1003.25L218.283 1038.78L218.282 1038.78Z" fill="#FFFCF4"/>
<path d="M40.2368 1340.9L-8.05796 1287.28C18.4803 1257.81 20.1384 1225.42 -2.0087 1200.83C-24.1558 1176.24 -52.8411 1178.19 -79.5734 1207.87L-95.1836 1225.21L24.6278 1358.24L40.238 1340.9L40.2368 1340.9ZM-75.7694 1212.1C-74.7941 1211.01 -73.7206 1210.25 -72.8424 1209.28C-59.7685 1194.76 -35.1821 1199.96 -17.5231 1219.57C0.135933 1239.18 3.25823 1263.01 -10.5956 1278.4C-11.4738 1279.37 -12.352 1280.56 -13.2302 1281.54L-75.7706 1212.09L-75.7694 1212.1Z" fill="#FFFCF4"/>
<path d="M1211.72 72.755C1178.75 109.371 1190.55 167.329 1220.8 200.912C1251.04 234.494 1303.34 247.711 1336.32 211.095C1369.29 174.479 1357.39 116.412 1327.14 82.8295C1296.9 49.2468 1244.7 36.1391 1211.72 72.755ZM1332.71 207.087C1305.39 237.42 1258.85 205.463 1237.77 182.062C1216.7 158.662 1186.55 108.722 1215.33 76.7632C1244.12 44.8049 1289 78.1707 1310.17 101.679C1331.34 125.187 1360.03 176.753 1332.71 207.087Z" fill="#FFFCF4"/>
<path d="M927.026 388.869C894.049 425.485 905.854 483.443 936.099 517.026C966.345 550.609 1018.64 563.825 1051.62 527.21C1084.59 490.594 1072.69 432.527 1042.45 398.944C1012.2 365.361 960.003 352.253 927.026 388.869ZM1047.42 522.551C1020.1 552.884 974.149 521.576 953.075 498.177C932.002 474.778 902.438 425.485 931.221 393.527C960.003 361.568 1004.3 394.285 1025.47 417.793C1046.64 441.301 1074.74 492.217 1047.42 522.551Z" fill="#FFFCF4"/>
<path d="M1170.89 123.4L1184.45 138.458L1147.57 159.692L1262.7 287.524L1247.09 304.858L1131.96 177.026L1112.94 217.867L1099.38 202.809L1170.89 123.4Z" fill="#FFFCF4"/>
<path d="M1044.45 263.8L1057.91 278.75L1021.13 300.091L1136.26 427.923L1120.74 445.149L1005.52 317.424L986.493 358.05L973.028 343.099L1044.45 263.8Z" fill="#FFFCF4"/>
<path d="M689.288 658.151L673.774 675.376L793.586 808.408L809.099 791.183L689.288 658.151Z" fill="#FFFCF4"/>
<path d="M758.56 851.849C749.779 861.598 734.656 869.94 721.973 869.94L706.167 852.39L706.557 851.09C721.582 853.473 743.046 854.991 751.926 845.132C760.219 835.923 759.828 825.089 748.609 812.632C732.999 795.299 702.46 791.506 673.972 784.357C659.922 780.89 638.165 776.883 628.018 765.617C616.602 752.942 617.285 733.551 630.457 718.925C637.872 710.692 648.604 705.492 658.849 703.649L675.436 722.066L674.265 723.366C658.849 720.55 641.287 716.649 633.677 725.099C628.993 730.3 630.262 737.99 635.824 744.165C643.726 752.94 665.484 756.298 686.558 761.065C710.949 766.482 743.049 770.707 762.464 792.265C776.319 807.649 777.293 831.048 758.561 851.847L758.56 851.849Z" fill="#FFFCF4"/>
<path d="M1217.19 338.064L1233.48 319.969L1083.18 220.792L1067.67 238.017L1146.6 416.441L1162.6 398.675L1130.21 339.956L1164.32 302.081L1217.18 338.065L1217.19 338.064ZM1126.88 333.907L1076.25 242.132L1158.88 298.373L1126.88 333.905L1126.88 333.907Z" fill="#FFFCF4"/>
<path d="M948.832 636.03L900.537 582.406C927.075 552.939 928.733 520.549 906.586 495.958C884.439 471.367 855.754 473.317 829.021 502.999L813.411 520.332L933.223 653.364L948.833 636.032L948.832 636.03ZM832.825 507.223C833.801 506.14 834.874 505.382 835.752 504.407C848.826 489.89 873.413 495.09 891.072 514.698C908.731 534.306 911.853 558.14 897.999 573.522C897.121 574.497 896.243 575.688 895.365 576.663L832.824 507.222L832.825 507.223Z" fill="#FFFCF4"/>
<path d="M782.692 554.439L859.795 703.909L720.764 623.2L703.494 642.376L820.671 778.334L837.257 759.917L720.373 645.733L721.447 644.542L865.552 728.5L875.113 717.884L794.914 562.967L904.774 684.95L920.287 667.725L800.475 534.693L782.692 554.439Z" fill="#FFFCF4"/>
<path d="M1967.58 59.0413C1934.61 95.6571 1946.41 153.615 1976.66 187.198C2006.9 220.781 2059.2 233.997 2092.18 197.382C2125.15 160.766 2113.25 102.698 2083 69.1158C2052.76 35.5331 2000.56 22.4254 1967.58 59.0413ZM2088.57 193.373C2061.25 223.706 2014.71 191.749 1993.63 168.349C1972.56 144.948 1942.41 95.0079 1971.19 63.0495C1999.98 31.0911 2044.86 64.457 2066.03 87.9651C2087.2 111.473 2115.89 163.039 2088.57 193.373Z" fill="#FFFCF4"/>
<path d="M1682.89 375.156C1649.91 411.771 1661.71 469.73 1691.96 503.312C1722.2 536.895 1774.5 550.112 1807.48 513.496C1840.46 476.88 1828.55 418.813 1798.31 385.23C1768.06 351.647 1715.86 338.54 1682.89 375.156ZM1803.28 508.837C1775.96 539.17 1730.01 507.862 1708.94 484.463C1687.86 461.064 1658.3 411.771 1687.08 379.813C1715.86 347.855 1760.16 380.571 1781.33 404.079C1802.5 427.588 1830.6 478.503 1803.28 508.837Z" fill="#FFFCF4"/>
<path d="M1926.75 109.687L1940.32 124.745L1903.44 145.978L2018.56 273.81L2002.95 291.144L1887.82 163.312L1868.8 204.153L1855.24 189.095L1926.75 109.687Z" fill="#FFFCF4"/>
<path d="M1800.31 250.086L1813.77 265.037L1776.99 286.378L1892.12 414.21L1876.6 431.435L1761.38 303.71L1742.35 344.336L1728.89 329.386L1800.31 250.086Z" fill="#FFFCF4"/>
<path d="M1445.15 644.437L1429.63 661.662L1549.45 794.695L1564.96 777.469L1445.15 644.437Z" fill="#FFFCF4"/>
<path d="M1514.42 838.135C1505.64 847.885 1490.52 856.226 1477.83 856.226L1462.03 838.676L1462.42 837.377C1477.44 839.759 1498.91 841.277 1507.79 831.418C1516.08 822.21 1515.69 811.375 1504.47 798.918C1488.86 781.586 1458.32 777.793 1429.83 770.644C1415.78 767.177 1394.03 763.17 1383.88 751.903C1372.46 739.228 1373.15 719.837 1386.32 705.212C1393.73 696.978 1404.46 691.778 1414.71 689.936L1431.3 708.353L1430.13 709.652C1414.71 706.836 1397.15 702.935 1389.54 711.386C1384.85 716.586 1386.12 724.276 1391.68 730.452C1399.59 739.227 1421.34 742.584 1442.42 747.351C1466.81 752.768 1498.91 756.993 1518.32 778.551C1532.18 793.935 1533.15 817.334 1514.42 838.134L1514.42 838.135Z" fill="#FFFCF4"/>
<path d="M1973.05 324.35L1989.34 306.255L1839.04 207.078L1823.53 224.303L1902.46 402.728L1918.46 384.961L1886.07 326.242L1920.18 288.368L1973.05 324.352L1973.05 324.35ZM1882.74 320.193L1832.12 228.418L1914.74 284.659L1882.74 320.192L1882.74 320.193Z" fill="#FFFCF4"/>
<path d="M1704.69 622.316L1656.4 568.692C1682.94 539.226 1684.59 506.835 1662.45 482.244C1640.3 457.653 1611.61 459.603 1584.88 489.285L1569.27 506.618L1689.08 639.65L1704.69 622.318L1704.69 622.316ZM1588.69 493.509C1589.66 492.426 1590.73 491.668 1591.61 490.693C1604.69 476.176 1629.27 481.377 1646.93 500.984C1664.59 520.592 1667.71 544.426 1653.86 559.808C1652.98 560.784 1652.1 561.974 1651.22 562.949L1588.68 493.508L1588.69 493.509Z" fill="#FFFCF4"/>
<path d="M1538.55 540.725L1615.66 690.195L1476.62 609.487L1459.35 628.662L1576.53 764.62L1593.12 746.203L1476.23 632.02L1477.31 630.828L1621.41 714.786L1630.97 704.17L1550.77 549.254L1660.63 671.236L1676.15 654.011L1556.34 520.979L1538.55 540.725Z" fill="#FFFCF4"/>
<path d="M1823.49 731.918C1790.52 768.534 1802.32 826.492 1832.57 860.075C1862.81 893.658 1915.11 906.875 1948.08 870.259C1981.06 833.643 1969.16 775.576 1938.91 741.993C1908.67 708.41 1856.47 695.303 1823.49 731.918ZM1944.47 866.25C1917.16 896.583 1870.62 864.626 1849.54 841.226C1828.47 817.825 1798.32 767.885 1827.1 735.927C1855.89 703.968 1900.77 737.334 1921.94 760.842C1943.11 784.35 1971.79 835.916 1944.47 866.25Z" fill="#FFFCF4"/>
<path d="M1538.79 1048.03C1505.82 1084.65 1517.62 1142.61 1547.87 1176.19C1578.11 1209.77 1630.41 1222.99 1663.39 1186.37C1696.36 1149.76 1684.46 1091.69 1654.21 1058.11C1623.97 1024.52 1571.77 1011.42 1538.79 1048.03ZM1659.19 1181.71C1631.87 1212.05 1585.92 1180.74 1564.84 1157.34C1543.77 1133.94 1514.21 1084.65 1542.99 1052.69C1571.77 1020.73 1616.07 1053.45 1637.24 1076.96C1658.41 1100.46 1686.51 1151.38 1659.19 1181.71Z" fill="#FFFCF4"/>
<path d="M1782.66 782.564L1796.22 797.622L1759.34 818.855L1874.47 946.687L1858.86 964.021L1743.73 836.189L1724.71 877.03L1711.14 861.972L1782.66 782.564Z" fill="#FFFCF4"/>
<path d="M1656.22 922.964L1669.68 937.914L1632.9 959.255L1748.03 1087.09L1732.51 1104.31L1617.29 976.588L1598.26 1017.21L1584.8 1002.26L1656.22 922.964Z" fill="#FFFCF4"/>
<path d="M1828.95 997.227L1845.25 979.132L1694.95 879.955L1679.44 897.18L1758.37 1075.6L1774.37 1057.84L1741.98 999.119L1776.09 961.245L1828.95 997.229L1828.95 997.227ZM1738.64 993.07L1688.02 901.295L1770.65 957.536L1738.65 993.069L1738.64 993.07Z" fill="#FFFCF4"/>
<path d="M1560.6 1295.19L1512.31 1241.57C1538.84 1212.1 1540.5 1179.71 1518.35 1155.12C1496.21 1130.53 1467.52 1132.48 1440.79 1162.16L1425.18 1179.5L1544.99 1312.53L1560.6 1295.2L1560.6 1295.19ZM1444.59 1166.39C1445.57 1165.3 1446.64 1164.55 1447.52 1163.57C1460.59 1149.05 1485.18 1154.25 1502.84 1173.86C1520.5 1193.47 1523.62 1217.3 1509.77 1232.69C1508.89 1233.66 1508.01 1234.85 1507.13 1235.83L1444.59 1166.39L1444.59 1166.39Z" fill="#FFFCF4"/>
<path d="M1394.46 1213.6L1471.56 1363.07L1332.53 1282.36L1315.26 1301.54L1432.44 1437.5L1449.03 1419.08L1332.14 1304.9L1333.21 1303.71L1477.32 1387.66L1486.88 1377.05L1406.68 1222.13L1516.54 1344.11L1532.05 1326.89L1412.24 1193.86L1394.46 1213.6Z" fill="#FFFCF4"/>
<path d="M451.338 98.8093C418.361 135.425 430.166 193.383 460.411 226.966C490.656 260.549 542.952 273.765 575.929 237.15C608.906 200.534 597.003 142.467 566.758 108.884C536.513 75.3011 484.314 62.1935 451.338 98.8093ZM572.319 233.141C545.001 263.474 498.462 231.517 477.387 208.117C456.312 184.716 426.165 134.776 454.947 102.818C483.73 70.8592 528.61 104.225 549.782 127.733C570.954 151.241 599.639 202.807 572.319 233.141Z" fill="#FFFCF4"/>
<path d="M166.64 414.924C133.663 451.54 145.468 509.498 175.714 543.08C205.959 576.663 258.255 589.88 291.232 553.264C324.209 516.648 312.306 458.581 282.061 424.998C251.815 391.416 199.617 378.308 166.64 414.924ZM287.036 548.605C259.718 578.938 213.763 547.63 192.69 524.231C171.616 500.832 142.053 451.54 170.835 419.581C199.617 387.623 243.913 420.339 265.084 443.848C286.256 467.356 314.356 518.271 287.036 548.605Z" fill="#FFFCF4"/>
<path d="M410.506 149.455L424.067 164.513L387.188 185.746L502.316 313.578L486.705 330.912L371.577 203.08L352.551 243.921L338.989 228.863L410.506 149.455Z" fill="#FFFCF4"/>
<path d="M284.06 289.855L297.524 304.805L260.742 326.146L375.87 453.978L360.357 471.203L245.132 343.479L226.106 384.104L212.642 369.154L284.06 289.855Z" fill="#FFFCF4"/>
<path d="M-71.1001 684.205L-86.6133 701.43L33.1981 834.463L48.7113 817.238L-71.1001 684.205Z" fill="#FFFCF4"/>
<path d="M-1.82616 877.903C-10.6071 887.653 -25.7297 895.994 -38.413 895.994L-54.2185 878.444L-53.8291 877.145C-38.8035 879.527 -17.3393 881.045 -8.46011 871.186C-0.166768 861.978 -0.557345 851.144 -11.7765 838.686C-27.3867 821.354 -57.9254 817.561 -86.4142 810.412C-100.463 806.945 -122.221 802.938 -132.368 791.671C-143.783 778.996 -143.101 759.605 -129.928 744.98C-122.513 736.746 -111.782 731.546 -101.537 729.704L-84.9501 748.121L-86.1206 749.42C-101.537 746.604 -119.099 742.703 -126.709 751.154C-131.393 756.354 -130.124 764.045 -124.562 770.22C-116.659 778.995 -94.9016 782.352 -73.828 787.119C-49.4368 792.536 -17.3369 796.761 2.07849 818.319C15.9335 833.703 16.9075 857.102 -1.82496 877.902L-1.82616 877.903Z" fill="#FFFCF4"/>
<path d="M456.799 364.118L473.096 346.023L322.793 246.846L307.28 264.071L386.211 442.496L402.212 424.729L369.823 366.01L403.933 328.136L456.798 364.12L456.799 364.118ZM366.489 359.961L315.867 268.186L398.491 324.427L366.49 359.96L366.489 359.961Z" fill="#FFFCF4"/>
<path d="M188.446 662.085L140.151 608.461C166.689 578.994 168.347 546.603 146.2 522.012C124.053 497.421 95.3679 499.371 68.6356 529.054L53.0254 546.386L172.837 679.419L188.447 662.086L188.446 662.085ZM72.4396 533.277C73.4149 532.194 74.4884 531.436 75.3666 530.461C88.4404 515.945 113.027 521.145 130.686 540.752C148.345 560.36 151.467 584.194 137.613 599.577C136.735 600.552 135.857 601.742 134.979 602.718L72.4384 533.276L72.4396 533.277Z" fill="#FFFCF4"/>
<path d="M22.306 580.493L99.4094 729.963L-39.6221 649.255L-56.8917 668.43L60.285 804.388L76.8717 785.971L-40.0127 671.788L-38.9392 670.596L105.166 754.554L114.727 743.938L34.5279 589.022L144.388 711.005L159.901 693.78L40.0896 560.747L22.306 580.493Z" fill="#FFFCF4"/>
<path d="M1306.47 791.2C1282.22 818.123 1290.9 860.739 1313.14 885.432C1335.38 910.125 1373.83 919.843 1398.08 892.92C1422.33 865.997 1413.57 823.301 1391.34 798.608C1369.1 773.915 1330.72 764.277 1306.47 791.2ZM1395.42 889.972C1375.34 912.276 1341.12 888.778 1325.62 871.572C1310.13 854.366 1287.96 817.646 1309.12 794.148C1330.29 770.649 1363.29 795.183 1378.85 812.468C1394.42 829.753 1415.51 867.668 1395.42 889.972Z" fill="#FFFCF4"/>
<path d="M1097.13 1023.64C1072.89 1050.56 1081.57 1093.17 1103.8 1117.87C1126.04 1142.56 1164.5 1152.28 1188.74 1125.36C1212.99 1098.43 1204.24 1055.74 1182 1031.04C1159.76 1006.35 1121.38 996.713 1097.13 1023.64ZM1185.66 1121.93C1165.57 1144.23 1131.78 1121.21 1116.29 1104.01C1100.79 1086.8 1079.05 1050.56 1100.22 1027.06C1121.38 1003.56 1153.95 1027.62 1169.52 1044.9C1185.08 1062.19 1205.75 1099.63 1185.66 1121.93Z" fill="#FFFCF4"/>
<path d="M1276.45 828.439L1286.42 839.511L1259.3 855.123L1343.95 949.116L1332.47 961.862L1247.82 867.869L1233.83 897.898L1223.86 886.827L1276.45 828.439Z" fill="#FFFCF4"/>
<path d="M1183.47 931.675L1193.37 942.667L1166.32 958.359L1250.98 1052.35L1239.57 1065.02L1154.85 971.104L1140.86 1000.97L1130.96 989.982L1183.47 931.675Z" fill="#FFFCF4"/>
<path d="M1310.48 986.278L1322.47 972.973L1211.95 900.05L1200.55 912.715L1258.58 1043.91L1270.35 1030.84L1246.53 987.669L1271.61 959.82L1310.48 986.279L1310.48 986.278ZM1244.08 983.221L1206.86 915.74L1267.61 957.093L1244.08 983.22L1244.08 983.221Z" fill="#FFFCF4"/>
<path d="M1113.17 1205.37L1077.66 1165.94C1097.17 1144.27 1098.39 1120.46 1082.1 1102.38C1065.82 1084.29 1044.73 1085.73 1025.07 1107.55L1013.59 1120.3L1101.69 1218.11L1113.17 1205.37L1113.17 1205.37ZM1027.87 1110.66C1028.59 1109.86 1029.38 1109.31 1030.02 1108.59C1039.63 1097.91 1057.71 1101.74 1070.7 1116.16C1083.68 1130.57 1085.98 1148.1 1075.79 1159.41C1075.15 1160.12 1074.5 1161 1073.85 1161.72L1027.87 1110.66L1027.87 1110.66Z" fill="#FFFCF4"/>
<path d="M991.01 1145.37L1047.7 1255.28L945.475 1195.93L932.777 1210.03L1018.94 1310L1031.13 1296.46L945.188 1212.5L945.977 1211.63L1051.94 1273.36L1058.97 1265.55L999.996 1151.65L1080.77 1241.34L1092.18 1228.67L1004.09 1130.86L991.01 1145.37Z" fill="#FFFCF4"/>
<path d="M547.143 812.283C522.896 839.206 531.576 881.821 553.815 906.514C576.054 931.207 614.506 940.925 638.754 914.002C663.001 887.079 654.249 844.383 632.01 819.69C609.771 794.998 571.391 785.36 547.143 812.283ZM636.099 911.055C616.013 933.358 581.793 909.86 566.297 892.654C550.801 875.449 528.635 838.728 549.798 815.23C570.961 791.731 603.96 816.265 619.528 833.55C635.095 850.835 656.187 888.751 636.099 911.055Z" fill="#FFFCF4"/>
<path d="M337.807 1044.72C313.56 1071.64 322.24 1114.26 344.479 1138.95C366.718 1163.64 405.17 1173.36 429.418 1146.44C453.665 1119.51 444.913 1076.82 422.674 1052.13C400.435 1027.43 362.055 1017.79 337.807 1044.72ZM426.333 1143.01C406.246 1165.31 372.456 1142.29 356.961 1125.09C341.466 1107.88 319.729 1071.64 340.892 1048.14C362.055 1024.64 394.624 1048.7 410.192 1065.99C425.759 1083.27 446.42 1120.71 426.333 1143.01Z" fill="#FFFCF4"/>
<path d="M517.121 849.521L527.093 860.593L499.976 876.206L584.627 970.198L573.149 982.944L488.497 888.951L474.508 918.981L464.536 907.909L517.121 849.521Z" fill="#FFFCF4"/>
<path d="M424.144 952.757L434.045 963.75L406.999 979.442L491.651 1073.43L480.244 1086.1L395.521 992.186L381.532 1022.06L371.632 1011.06L424.144 952.757Z" fill="#FFFCF4"/>
<path d="M551.159 1007.36L563.142 994.055L452.628 921.132L441.221 933.797L499.257 1064.99L511.022 1051.93L487.208 1008.75L512.288 980.902L551.159 1007.36L551.159 1007.36ZM484.756 1004.3L447.535 936.823L508.287 978.175L484.757 1004.3L484.756 1004.3Z" fill="#FFFCF4"/>
<path d="M353.841 1226.45L318.33 1187.02C337.844 1165.36 339.063 1141.54 322.778 1123.46C306.494 1105.38 285.402 1106.81 265.746 1128.64L254.269 1141.38L342.364 1239.2L353.842 1226.45L353.841 1226.45ZM268.543 1131.74C269.261 1130.94 270.05 1130.39 270.696 1129.67C280.309 1119 298.387 1122.82 311.371 1137.24C324.355 1151.65 326.651 1169.18 316.465 1180.49C315.819 1181.21 315.173 1182.08 314.527 1182.8L268.543 1131.74L268.543 1131.74Z" fill="#FFFCF4"/>
<path d="M231.684 1166.46L288.376 1276.36L186.149 1217.02L173.451 1231.11L259.609 1331.08L271.805 1317.54L185.862 1233.58L186.651 1232.71L292.609 1294.44L299.639 1286.63L240.67 1172.73L321.448 1262.42L332.855 1249.75L244.76 1151.94L231.684 1166.46Z" fill="#FFFCF4"/>
<path d="M427.67 432.48C404.715 457.968 412.933 498.312 433.986 521.689C455.04 545.066 491.443 554.266 514.399 528.778C537.354 503.29 529.068 462.869 508.014 439.492C486.961 416.116 450.625 406.991 427.67 432.48ZM511.886 525.988C492.87 547.103 460.473 524.857 445.803 508.568C431.133 492.279 410.148 457.516 430.183 435.27C450.218 413.023 481.459 436.249 496.197 452.613C510.935 468.977 530.903 504.872 511.886 525.988Z" fill="#FFFCF4"/>
<path d="M229.489 652.529C206.533 678.017 214.751 718.362 235.805 741.739C256.858 765.116 293.262 774.316 316.217 748.828C339.172 723.339 330.886 682.919 309.833 659.542C288.779 636.165 252.444 627.041 229.489 652.529ZM313.296 745.585C294.28 766.699 262.291 744.906 247.622 728.618C232.952 712.33 212.373 678.017 232.408 655.771C252.444 633.525 283.278 656.299 298.016 672.663C312.753 689.027 332.313 724.469 313.296 745.585Z" fill="#FFFCF4"/>
<path d="M399.248 467.734L408.688 478.216L383.016 492.996L463.157 581.98L452.289 594.046L372.149 505.062L358.905 533.492L349.465 523.01L399.248 467.734Z" fill="#FFFCF4"/>
<path d="M311.224 565.468L320.597 575.875L294.993 590.731L375.133 679.715L364.334 691.705L284.126 602.796L270.882 631.075L261.51 620.669L311.224 565.468Z" fill="#FFFCF4"/>
<path d="M64.0018 839.973L53.2031 851.964L136.604 944.567L147.402 932.577L64.0018 839.973Z" fill="#FFFCF4"/>
<path d="M112.222 974.806C106.11 981.593 95.5831 987.399 86.7543 987.399L75.7521 975.183L76.0231 974.278C86.4824 975.937 101.424 976.993 107.604 970.13C113.377 963.72 113.106 956.179 105.296 947.507C94.4297 935.442 73.1717 932.802 53.3407 927.825C43.5611 925.412 28.4156 922.623 21.3524 914.78C13.406 905.957 13.8814 892.459 23.0504 882.278C28.2121 876.547 35.6823 872.927 42.8139 871.644L54.3598 884.465L53.545 885.369C42.8139 883.409 30.589 880.694 25.2914 886.576C22.0313 890.196 22.9145 895.549 26.7859 899.848C32.287 905.956 47.4326 908.293 62.1019 911.611C79.0806 915.382 101.425 918.323 114.94 933.33C124.585 944.038 125.263 960.326 112.223 974.805L112.222 974.806Z" fill="#FFFCF4"/>
<path d="M431.47 617.161L442.815 604.565L338.189 535.528L327.391 547.518L382.334 671.72L393.472 659.352L370.927 618.478L394.671 592.114L431.47 617.162L431.47 617.161ZM368.606 614.267L333.368 550.383L390.883 589.532L368.606 614.266L368.606 614.267Z" fill="#FFFCF4"/>
<path d="M244.667 824.577L211.049 787.25C229.523 766.738 230.677 744.191 215.26 727.073C199.844 709.955 179.876 711.313 161.268 731.974L150.401 744.04L233.802 836.644L244.668 824.578L244.667 824.577ZM163.916 734.915C164.594 734.161 165.342 733.633 165.953 732.954C175.054 722.849 192.168 726.469 204.461 740.118C216.753 753.767 218.927 770.358 209.283 781.066C208.672 781.744 208.06 782.573 207.449 783.252L163.915 734.914L163.916 734.915Z" fill="#FFFCF4"/>
<path d="M129.02 767.779L182.692 871.825L85.912 815.644L73.8906 828.992L155.457 923.632L167.003 910.812L85.6401 831.33L86.3874 830.5L186.699 888.943L193.354 881.553L137.528 773.716L214.001 858.628L224.8 846.638L141.399 754.034L129.02 767.779Z" fill="#FFFCF4"/>
<path d="M1190.83 410.905C1167.88 436.394 1176.09 476.738 1197.15 500.115C1218.2 523.492 1254.6 532.692 1277.56 507.204C1300.51 481.716 1292.23 441.295 1271.18 417.918C1250.12 394.541 1213.79 385.417 1190.83 410.905ZM1275.05 504.414C1256.03 525.528 1223.63 503.283 1208.96 486.994C1194.29 470.705 1173.31 435.942 1193.34 413.696C1213.38 391.449 1244.62 414.675 1259.36 431.039C1274.1 447.403 1294.06 483.298 1275.05 504.414Z" fill="#FFFCF4"/>
<path d="M992.65 630.955C969.695 656.443 977.912 696.788 998.966 720.165C1020.02 743.542 1056.42 752.742 1079.38 727.253C1102.33 701.765 1094.05 661.345 1072.99 637.968C1051.94 614.591 1015.6 605.467 992.65 630.955ZM1076.46 724.01C1057.44 745.125 1025.45 723.332 1010.78 707.044C996.113 690.756 975.534 656.443 995.57 634.197C1015.6 611.951 1046.44 634.725 1061.18 651.089C1075.91 667.453 1095.47 702.895 1076.46 724.01Z" fill="#FFFCF4"/>
<path d="M1162.41 446.16L1171.85 456.642L1146.18 471.422L1226.32 560.406L1215.45 572.472L1135.31 483.488L1122.07 511.918L1112.62 501.436L1162.41 446.16Z" fill="#FFFCF4"/>
<path d="M1074.39 543.894L1083.76 554.301L1058.15 569.157L1138.29 658.14L1127.5 670.131L1047.29 581.222L1034.04 609.501L1024.67 599.094L1074.39 543.894Z" fill="#FFFCF4"/>
<path d="M827.162 818.399L816.363 830.39L899.764 922.993L910.563 911.003L827.162 818.399Z" fill="#FFFCF4"/>
<path d="M875.382 953.232C869.269 960.019 858.742 965.825 849.913 965.825L838.911 953.609L839.182 952.704C849.642 954.363 864.583 955.419 870.764 948.556C876.537 942.146 876.265 934.605 868.455 925.933C857.589 913.868 836.331 911.228 816.5 906.251C806.72 903.838 791.575 901.049 784.512 893.206C776.565 884.383 777.041 870.885 786.21 860.704C791.371 854.973 798.841 851.353 805.973 850.071L817.519 862.891L816.704 863.795C805.973 861.835 793.748 859.12 788.451 865.002C785.19 868.622 786.074 873.975 789.945 878.274C795.446 884.382 810.592 886.719 825.261 890.037C842.24 893.808 864.584 896.749 878.1 911.756C887.744 922.464 888.422 938.752 875.382 953.231L875.382 953.232Z" fill="#FFFCF4"/>
<path d="M1194.63 595.587L1205.98 582.991L1101.35 513.954L1090.55 525.944L1145.5 650.145L1156.63 637.778L1134.09 596.904L1157.83 570.54L1194.63 595.588L1194.63 595.587ZM1131.77 592.693L1096.53 528.809L1154.04 567.958L1131.77 592.692L1131.77 592.693Z" fill="#FFFCF4"/>
<path d="M1007.83 803.003L974.211 765.676C992.684 745.164 993.838 722.617 978.421 705.499C963.005 688.381 943.037 689.739 924.429 710.401L913.562 722.466L996.963 815.07L1007.83 803.004L1007.83 803.003ZM927.077 713.341C927.756 712.587 928.503 712.059 929.114 711.38C938.215 701.275 955.33 704.895 967.622 718.544C979.914 732.193 982.088 748.784 972.444 759.492C971.833 760.17 971.222 760.999 970.61 761.678L927.076 713.34L927.077 713.341Z" fill="#FFFCF4"/>
<path d="M892.182 746.205L945.854 850.251L849.074 794.07L837.053 807.418L918.619 902.058L930.165 889.238L848.802 809.756L849.549 808.926L949.861 867.369L956.517 859.979L900.69 752.142L977.163 837.054L987.962 825.064L904.561 732.46L892.182 746.205Z" fill="#FFFCF4"/>
<path d="M1947.1 389.421C1924.15 414.909 1932.36 455.254 1953.42 478.631C1974.47 502.008 2010.87 511.208 2033.83 485.72C2056.79 460.231 2048.5 419.811 2027.45 396.434C2006.39 373.057 1970.06 363.933 1947.1 389.421ZM2031.32 482.929C2012.3 504.044 1979.91 481.799 1965.23 465.51C1950.56 449.221 1929.58 414.457 1949.61 392.211C1969.65 369.965 2000.89 393.191 2015.63 409.555C2030.37 425.919 2050.33 461.814 2031.32 482.929Z" fill="#FFFCF4"/>
<path d="M1748.92 609.47C1725.96 634.959 1734.18 675.303 1755.24 698.68C1776.29 722.057 1812.69 731.257 1835.65 705.769C1858.6 680.281 1850.32 639.86 1829.26 616.483C1808.21 593.106 1771.87 583.982 1748.92 609.47ZM1832.73 702.526C1813.71 723.641 1781.72 701.847 1767.05 685.559C1752.38 669.271 1731.8 634.959 1751.84 612.712C1771.87 590.466 1802.71 613.24 1817.45 629.604C1832.18 645.968 1851.74 681.411 1832.73 702.526Z" fill="#FFFCF4"/>
<path d="M1918.68 424.675L1928.12 435.157L1902.45 449.938L1982.59 538.922L1971.72 550.988L1891.58 462.004L1878.34 490.433L1868.9 479.951L1918.68 424.675Z" fill="#FFFCF4"/>
<path d="M1830.66 522.41L1840.03 532.817L1814.43 547.672L1894.57 636.656L1883.77 648.646L1803.56 559.737L1790.31 588.017L1780.94 577.61L1830.66 522.41Z" fill="#FFFCF4"/>
<path d="M1583.43 796.915L1572.63 808.905L1656.04 901.509L1666.83 889.518L1583.43 796.915Z" fill="#FFFCF4"/>
<path d="M1631.65 931.748C1625.54 938.534 1615.01 944.341 1606.19 944.341L1595.18 932.124L1595.45 931.22C1605.91 932.878 1620.86 933.935 1627.04 927.072C1632.81 920.662 1632.54 913.12 1624.73 904.449C1613.86 892.384 1592.6 889.743 1572.77 884.767C1562.99 882.354 1547.85 879.564 1540.78 871.722C1532.84 862.898 1533.31 849.401 1542.48 839.22C1547.64 833.488 1555.11 829.869 1562.25 828.586L1573.79 841.406L1572.98 842.311C1562.25 840.35 1550.02 837.635 1544.72 843.517C1541.46 847.137 1542.35 852.491 1546.22 856.789C1551.72 862.898 1566.86 865.235 1581.53 868.553C1598.51 872.324 1620.86 875.265 1634.37 890.271C1644.02 900.98 1644.69 917.268 1631.65 931.747L1631.65 931.748Z" fill="#FFFCF4"/>
<path d="M1950.9 574.103L1962.25 561.507L1857.62 492.47L1846.82 504.46L1901.77 628.661L1912.9 616.294L1890.36 575.419L1914.1 549.055L1950.9 574.104L1950.9 574.103ZM1888.04 571.209L1852.8 507.324L1910.32 546.473L1888.04 571.208L1888.04 571.209Z" fill="#FFFCF4"/>
<path d="M1764.1 781.519L1730.48 744.191C1748.96 723.679 1750.11 701.132 1734.69 684.014C1719.28 666.897 1699.31 668.254 1680.7 688.916L1669.83 700.981L1753.23 793.585L1764.1 781.52L1764.1 781.519ZM1683.35 691.856C1684.03 691.102 1684.77 690.575 1685.39 689.896C1694.49 679.791 1711.6 683.411 1723.89 697.06C1736.19 710.708 1738.36 727.299 1728.72 738.007C1728.1 738.686 1727.49 739.515 1726.88 740.193L1683.35 691.855L1683.35 691.856Z" fill="#FFFCF4"/>
<path d="M1648.45 724.721L1702.12 828.767L1605.34 772.586L1593.32 785.934L1674.89 880.574L1686.43 867.754L1605.07 788.271L1605.82 787.441L1706.13 845.884L1712.79 838.495L1656.96 730.658L1733.43 815.57L1744.23 803.579L1660.83 710.976L1648.45 724.721Z" fill="#FFFCF4"/>
<path d="M1860.08 1007.62C1837.12 1033.11 1845.34 1073.45 1866.39 1096.83C1887.45 1120.21 1923.85 1129.41 1946.8 1103.92C1969.76 1078.43 1961.47 1038.01 1940.42 1014.63C1919.37 991.256 1883.03 982.131 1860.08 1007.62ZM1943.88 1100.68C1924.87 1121.79 1892.88 1100 1878.21 1083.71C1863.54 1067.42 1842.96 1033.11 1863 1010.86C1883.03 988.616 1913.86 1011.39 1928.6 1027.75C1943.34 1044.12 1962.9 1079.56 1943.88 1100.68Z" fill="#FFFCF4"/>
<path d="M1941.81 920.559L1951.18 930.966L1925.58 945.821L2005.72 1034.81L1994.92 1046.8L1914.71 957.887L1901.47 986.166L1892.1 975.759L1941.81 920.559Z" fill="#FFFCF4"/>
<path d="M1694.59 1195.06L1683.79 1207.05L1767.19 1299.66L1777.99 1287.67L1694.59 1195.06Z" fill="#FFFCF4"/>
<path d="M1875.26 1179.67L1841.64 1142.34C1860.11 1121.83 1861.26 1099.28 1845.85 1082.16C1830.43 1065.05 1810.46 1066.4 1791.86 1087.07L1780.99 1099.13L1864.39 1191.73L1875.26 1179.67L1875.26 1179.67ZM1794.5 1090.01C1795.18 1089.25 1795.93 1088.72 1796.54 1088.05C1805.64 1077.94 1822.76 1081.56 1835.05 1095.21C1847.34 1108.86 1849.51 1125.45 1839.87 1136.16C1839.26 1136.84 1838.65 1137.66 1838.04 1138.34L1794.5 1090L1794.5 1090.01Z" fill="#FFFCF4"/>
<path d="M1759.61 1122.87L1813.28 1226.92L1716.5 1170.74L1704.48 1184.08L1786.04 1278.72L1797.59 1265.9L1716.23 1186.42L1716.97 1185.59L1817.29 1244.03L1823.94 1236.64L1768.11 1128.81L1844.59 1213.72L1855.39 1201.73L1771.99 1109.12L1759.61 1122.87Z" fill="#FFFCF4"/>
<path d="M538.016 1053.32C519.821 1073.52 526.334 1105.5 543.023 1124.03C559.711 1142.56 588.567 1149.85 606.762 1129.65C624.958 1109.45 618.39 1077.41 601.702 1058.88C585.013 1040.35 556.212 1033.11 538.016 1053.32ZM604.77 1127.44C589.697 1144.18 564.018 1126.54 552.39 1113.63C540.761 1100.72 524.127 1073.16 540.008 1055.53C555.889 1037.9 580.653 1056.31 592.335 1069.28C604.017 1082.25 619.844 1110.7 604.77 1127.44Z" fill="#FFFCF4"/>
<path d="M380.923 1227.75C362.727 1247.95 369.241 1279.93 385.929 1298.46C402.617 1316.99 431.473 1324.28 449.668 1304.08C467.864 1283.88 461.296 1251.84 444.608 1233.31C427.92 1214.78 399.118 1207.54 380.923 1227.75ZM447.353 1301.51C432.28 1318.25 406.924 1300.97 395.296 1288.06C383.668 1275.15 367.356 1247.95 383.237 1230.32C399.118 1212.68 423.559 1230.74 435.241 1243.71C446.923 1256.68 462.427 1284.77 447.353 1301.51Z" fill="#FFFCF4"/>
<path d="M515.476 1081.28L522.959 1089.59L502.61 1101.31L566.134 1171.84L557.521 1181.4L493.996 1110.87L483.498 1133.4L476.016 1125.1L515.476 1081.28Z" fill="#FFFCF4"/>
<path d="M445.705 1158.75L453.135 1167L432.839 1178.78L496.363 1249.31L487.804 1258.81L424.226 1188.34L413.728 1210.75L406.299 1202.51L445.705 1158.75Z" fill="#FFFCF4"/>
<path d="M541.019 1199.73L550.011 1189.74L467.078 1135.02L458.519 1144.52L502.07 1242.97L510.899 1233.17L493.028 1200.77L511.849 1179.87L541.018 1199.73L541.019 1199.73ZM491.188 1197.43L463.257 1146.79L508.846 1177.83L491.189 1197.43L491.188 1197.43Z" fill="#FFFCF4"/>
<path d="M776.777 955.494C764.395 969.242 768.828 991.002 780.183 1003.61C791.539 1016.22 811.174 1021.18 823.555 1007.43C835.936 993.687 831.467 971.885 820.111 959.277C808.756 946.668 789.158 941.747 776.777 955.494ZM822.199 1005.93C811.943 1017.32 794.469 1005.32 786.557 996.534C778.644 987.748 767.326 968.998 778.132 956.999C788.938 945 805.789 957.528 813.738 966.354C821.687 975.18 832.457 994.541 822.199 1005.93Z" fill="#FFFCF4"/>
<path d="M669.883 1074.18C657.502 1087.93 661.934 1109.69 673.29 1122.3C684.645 1134.91 704.28 1139.87 716.661 1126.12C729.042 1112.38 724.573 1090.58 713.218 1077.97C701.862 1065.36 682.264 1060.44 669.883 1074.18ZM715.086 1124.38C704.829 1135.76 687.575 1124.01 679.663 1115.22C671.751 1106.44 660.652 1087.93 671.458 1075.93C682.264 1063.93 698.895 1076.22 706.844 1085.04C714.793 1093.87 725.343 1112.99 715.086 1124.38Z" fill="#FFFCF4"/>
<path d="M761.44 974.521L766.532 980.175L752.685 988.147L795.91 1036.14L790.049 1042.65L746.824 994.655L739.681 1009.99L734.589 1004.34L761.44 974.521Z" fill="#FFFCF4"/>
<path d="M713.965 1027.24L719.02 1032.85L705.21 1040.86L748.435 1088.86L742.61 1095.32L699.349 1047.37L692.206 1062.62L687.15 1057.01L713.965 1027.24Z" fill="#FFFCF4"/>
<path d="M580.628 1175.28L574.804 1181.75L619.787 1231.7L625.612 1225.23L580.628 1175.28Z" fill="#FFFCF4"/>
<path d="M606.636 1248.01C603.339 1251.67 597.661 1254.8 592.899 1254.8L586.965 1248.21L587.111 1247.72C592.753 1248.62 600.811 1249.19 604.145 1245.48C607.259 1242.03 607.112 1237.96 602.9 1233.28C597.039 1226.77 585.573 1225.35 574.877 1222.67C569.602 1221.37 561.433 1219.86 557.624 1215.63C553.338 1210.87 553.594 1203.59 558.54 1198.1C561.324 1195.01 565.353 1193.06 569.199 1192.36L575.427 1199.28L574.987 1199.77C569.199 1198.71 562.606 1197.25 559.748 1200.42C557.99 1202.37 558.466 1205.26 560.554 1207.58C563.521 1210.87 571.69 1212.13 579.603 1213.92C588.76 1215.96 600.812 1217.54 608.102 1225.64C613.304 1231.41 613.669 1240.2 606.636 1248.01L606.636 1248.01Z" fill="#FFFCF4"/>
<path d="M778.821 1055.12L784.939 1048.32L728.508 1011.09L722.684 1017.55L752.318 1084.54L758.326 1077.87L746.166 1055.83L758.972 1041.61L778.82 1055.12L778.821 1055.12ZM744.914 1053.56L725.908 1019.1L756.929 1040.21L744.914 1053.56L744.914 1053.56Z" fill="#FFFCF4"/>
<path d="M678.069 1166.98L659.937 1146.85C669.901 1135.78 670.523 1123.62 662.208 1114.39C653.893 1105.16 643.123 1105.89 633.086 1117.03L627.226 1123.54L672.209 1173.49L678.07 1166.98L678.069 1166.98ZM634.515 1118.62C634.881 1118.21 635.284 1117.93 635.614 1117.56C640.522 1112.11 649.753 1114.07 656.383 1121.43C663.013 1128.79 664.186 1137.74 658.984 1143.51C658.655 1143.88 658.325 1144.33 657.995 1144.69L634.514 1118.62L634.515 1118.62Z" fill="#FFFCF4"/>
<path d="M615.693 1136.35L644.641 1192.47L592.442 1162.16L585.958 1169.36L629.952 1220.41L636.18 1213.49L592.295 1170.62L592.698 1170.18L646.803 1201.7L650.393 1197.71L620.282 1139.55L661.529 1185.35L667.353 1178.88L622.37 1128.93L615.693 1136.35Z" fill="#FFFCF4"/>
<path d="M1536.1 932.744C1523.72 946.491 1528.16 968.252 1539.51 980.86C1550.87 993.469 1570.5 998.431 1582.88 984.684C1595.26 970.936 1590.8 949.135 1579.44 936.526C1568.08 923.917 1548.49 918.996 1536.1 932.744ZM1581.53 983.179C1571.27 994.567 1553.8 982.569 1545.88 973.783C1537.97 964.997 1526.65 946.247 1537.46 934.248C1548.27 922.25 1565.12 934.777 1573.07 943.603C1581.01 952.429 1591.78 971.79 1581.53 983.179Z" fill="#FFFCF4"/>
<path d="M1429.21 1051.43C1416.83 1065.18 1421.26 1086.94 1432.62 1099.55C1443.97 1112.16 1463.61 1117.12 1475.99 1103.37C1488.37 1089.63 1483.9 1067.82 1472.54 1055.22C1461.19 1042.61 1441.59 1037.69 1429.21 1051.43ZM1474.41 1101.62C1464.16 1113.01 1446.9 1101.26 1438.99 1092.47C1431.08 1083.69 1419.98 1065.18 1430.78 1053.18C1441.59 1041.18 1458.22 1053.47 1466.17 1062.29C1474.12 1071.12 1484.67 1090.24 1474.41 1101.62Z" fill="#FFFCF4"/>
<path d="M1520.77 951.77L1525.86 957.424L1512.01 965.396L1555.24 1013.39L1549.38 1019.9L1506.15 971.904L1499.01 987.238L1493.92 981.584L1520.77 951.77Z" fill="#FFFCF4"/>
<path d="M1473.29 1004.49L1478.35 1010.1L1464.54 1018.11L1507.76 1066.11L1501.94 1072.57L1458.68 1024.62L1451.53 1039.87L1446.48 1034.26L1473.29 1004.49Z" fill="#FFFCF4"/>
<path d="M1339.95 1152.53L1334.13 1159L1379.11 1208.95L1384.94 1202.48L1339.95 1152.53Z" fill="#FFFCF4"/>
<path d="M1365.96 1225.26C1362.67 1228.92 1356.99 1232.05 1352.23 1232.05L1346.29 1225.46L1346.44 1224.97C1352.08 1225.87 1360.14 1226.44 1363.47 1222.73C1366.58 1219.28 1366.44 1215.21 1362.23 1210.53C1356.37 1204.02 1344.9 1202.6 1334.2 1199.92C1328.93 1198.61 1320.76 1197.11 1316.95 1192.88C1312.66 1188.12 1312.92 1180.84 1317.87 1175.35C1320.65 1172.26 1324.68 1170.31 1328.53 1169.61L1334.75 1176.53L1334.31 1177.02C1328.53 1175.96 1321.93 1174.49 1319.07 1177.67C1317.32 1179.62 1317.79 1182.51 1319.88 1184.83C1322.85 1188.12 1331.02 1189.38 1338.93 1191.17C1348.09 1193.2 1360.14 1194.79 1367.43 1202.88C1372.63 1208.66 1373 1217.45 1365.96 1225.25L1365.96 1225.26Z" fill="#FFFCF4"/>
<path d="M1538.15 1032.37L1544.27 1025.57L1487.84 988.336L1482.01 994.803L1511.65 1061.79L1517.65 1055.12L1505.49 1033.08L1518.3 1018.86L1538.15 1032.37L1538.15 1032.37ZM1504.24 1030.81L1485.23 996.348L1516.26 1017.46L1504.24 1030.8L1504.24 1030.81Z" fill="#FFFCF4"/>
<path d="M1437.4 1144.23L1419.27 1124.1C1429.23 1113.03 1429.85 1100.87 1421.54 1091.64C1413.22 1082.41 1402.45 1083.14 1392.41 1094.28L1386.55 1100.79L1431.54 1150.74L1437.4 1144.23L1437.4 1144.23ZM1393.84 1095.87C1394.21 1095.46 1394.61 1095.18 1394.94 1094.81C1399.85 1089.36 1409.08 1091.31 1415.71 1098.68C1422.34 1106.04 1423.51 1114.99 1418.31 1120.76C1417.98 1121.13 1417.65 1121.57 1417.32 1121.94L1393.84 1095.87L1393.84 1095.87Z" fill="#FFFCF4"/>
<path d="M1375.02 1113.6L1403.97 1169.71L1351.77 1139.41L1345.28 1146.61L1389.28 1197.66L1395.51 1190.74L1351.62 1147.87L1352.02 1147.42L1406.13 1178.95L1409.72 1174.96L1379.61 1116.8L1420.85 1162.6L1426.68 1156.13L1381.7 1106.18L1375.02 1113.6Z" fill="#FFFCF4"/>
<path d="M544.568 517.619C535.03 528.209 538.444 544.973 547.192 554.686C555.94 564.399 571.066 568.222 580.604 557.631C590.142 547.041 586.699 530.246 577.951 520.533C569.203 510.819 554.106 507.028 544.568 517.619ZM579.56 556.472C571.659 565.245 558.198 556.002 552.102 549.234C546.007 542.466 537.287 528.022 545.612 518.778C553.937 509.535 566.918 519.185 573.041 525.985C579.165 532.784 587.462 547.698 579.56 556.472Z" fill="#FFFCF4"/>
<path d="M462.219 609.053C452.681 619.644 456.096 636.407 464.844 646.12C473.592 655.833 488.717 659.656 498.255 649.066C507.794 638.475 504.351 621.68 495.603 611.967C486.855 602.254 471.757 598.462 462.219 609.053ZM497.042 647.718C489.141 656.491 475.849 647.436 469.754 640.668C463.659 633.901 455.108 619.644 463.433 610.4C471.757 601.157 484.569 610.619 490.693 617.419C496.816 624.218 504.944 638.945 497.042 647.718Z" fill="#FFFCF4"/>
<path d="M532.753 532.276L536.676 536.632L526.009 542.773L559.308 579.746L554.793 584.76L521.494 547.787L515.991 559.599L512.068 555.244L532.753 532.276Z" fill="#FFFCF4"/>
<path d="M496.18 572.886L500.074 577.21L489.436 583.382L522.735 620.356L518.248 625.338L484.921 588.396L479.418 600.146L475.523 595.822L496.18 572.886Z" fill="#FFFCF4"/>
<path d="M393.462 686.935L388.975 691.917L423.628 730.394L428.115 725.412L393.462 686.935Z" fill="#FFFCF4"/>
<path d="M413.497 742.959C410.958 745.779 406.584 748.191 402.915 748.191L398.344 743.115L398.456 742.739C402.802 743.428 409.01 743.867 411.579 741.016C413.977 738.352 413.864 735.219 410.619 731.616C406.104 726.603 397.272 725.506 389.032 723.438C384.968 722.435 378.675 721.276 375.74 718.018C372.438 714.351 372.636 708.743 376.446 704.513C378.591 702.131 381.694 700.627 384.658 700.094L389.455 705.421L389.117 705.797C384.658 704.983 379.578 703.854 377.377 706.298C376.022 707.803 376.389 710.027 377.998 711.813C380.284 714.351 386.577 715.322 392.672 716.701C399.727 718.268 409.011 719.49 414.627 725.725C418.634 730.174 418.916 736.942 413.498 742.958L413.497 742.959Z" fill="#FFFCF4"/>
<path d="M546.143 594.364L550.857 589.131L507.384 560.445L502.897 565.427L525.727 617.034L530.355 611.895L520.987 594.911L530.853 583.957L546.143 594.365L546.143 594.364ZM520.022 593.162L505.381 566.617L529.279 582.884L520.023 593.161L520.022 593.162Z" fill="#FFFCF4"/>
<path d="M468.528 680.54L454.56 665.03C462.236 656.507 462.715 647.139 456.31 640.026C449.904 632.914 441.607 633.478 433.875 642.063L429.36 647.076L464.014 685.554L468.529 680.54L468.528 680.54ZM434.976 643.285C435.258 642.972 435.568 642.752 435.822 642.47C439.604 638.272 446.715 639.776 451.822 645.447C456.93 651.118 457.833 658.012 453.826 662.461C453.572 662.743 453.318 663.087 453.064 663.369L434.975 643.284L434.976 643.285Z" fill="#FFFCF4"/>
<path d="M420.475 656.94L442.776 700.172L402.564 676.828L397.569 682.374L431.46 721.698L436.258 716.371L402.451 683.346L402.761 683.001L444.441 707.284L447.207 704.214L424.01 659.407L455.785 694.688L460.272 689.706L425.619 651.229L420.475 656.94Z" fill="#FFFCF4"/>
<path d="M1305.77 495.22C1296.24 505.81 1299.65 522.574 1308.4 532.287C1317.15 542 1332.27 545.823 1341.81 535.232C1351.35 524.642 1347.9 507.847 1339.16 498.134C1330.41 488.42 1315.31 484.629 1305.77 495.22ZM1340.77 534.073C1332.86 542.846 1319.4 533.603 1313.31 526.835C1307.21 520.067 1298.49 505.622 1306.82 496.379C1315.14 487.136 1328.12 496.786 1334.25 503.585C1340.37 510.385 1348.67 525.299 1340.77 534.073Z" fill="#FFFCF4"/>
<path d="M1223.43 586.647C1213.89 597.238 1217.31 614.001 1226.06 623.715C1234.8 633.428 1249.93 637.251 1259.47 626.66C1269.01 616.07 1265.56 599.275 1256.81 589.561C1248.07 579.848 1232.97 576.057 1223.43 586.647ZM1258.25 625.313C1250.35 634.086 1237.06 625.031 1230.97 618.263C1224.87 611.495 1216.32 597.238 1224.64 587.995C1232.97 578.751 1245.78 588.214 1251.9 595.013C1258.03 601.813 1266.16 616.539 1258.25 625.313Z" fill="#FFFCF4"/>
<path d="M1293.96 509.871L1297.89 514.226L1287.22 520.368L1320.52 557.341L1316 562.355L1282.7 525.381L1277.2 537.194L1273.28 532.839L1293.96 509.871Z" fill="#FFFCF4"/>
<path d="M1257.39 550.48L1261.28 554.804L1250.65 560.977L1283.94 597.95L1279.46 602.932L1246.13 565.99L1240.63 577.74L1236.73 573.416L1257.39 550.48Z" fill="#FFFCF4"/>
<path d="M1154.67 664.529L1150.19 669.511L1184.84 707.989L1189.33 703.007L1154.67 664.529Z" fill="#FFFCF4"/>
<path d="M1174.71 720.553C1172.17 723.373 1167.8 725.786 1164.13 725.786L1159.56 720.71L1159.67 720.334C1164.01 721.023 1170.22 721.462 1172.79 718.61C1175.19 715.947 1175.08 712.813 1171.83 709.21C1167.32 704.197 1158.48 703.1 1150.24 701.032C1146.18 700.03 1139.89 698.871 1136.95 695.612C1133.65 691.946 1133.85 686.337 1137.66 682.107C1139.8 679.726 1142.91 678.222 1145.87 677.689L1150.67 683.016L1150.33 683.392C1145.87 682.577 1140.79 681.449 1138.59 683.893C1137.23 685.397 1137.6 687.621 1139.21 689.408C1141.5 691.946 1147.79 692.917 1153.88 694.295C1160.94 695.862 1170.22 697.084 1175.84 703.319C1179.85 707.769 1180.13 714.537 1174.71 720.553L1174.71 720.553Z" fill="#FFFCF4"/>
<path d="M1307.35 571.959L1312.07 566.725L1268.6 538.04L1264.11 543.022L1286.94 594.628L1291.57 589.49L1282.2 572.506L1292.06 561.551L1307.35 571.959L1307.35 571.959ZM1281.23 570.756L1266.59 544.212L1290.49 560.479L1281.23 570.756L1281.23 570.756Z" fill="#FFFCF4"/>
<path d="M1229.74 658.135L1215.77 642.625C1223.45 634.102 1223.93 624.733 1217.52 617.621C1211.11 610.508 1202.82 611.072 1195.09 619.658L1190.57 624.671L1225.22 663.148L1229.74 658.135L1229.74 658.135ZM1196.19 620.879C1196.47 620.566 1196.78 620.347 1197.03 620.065C1200.81 615.866 1207.92 617.37 1213.03 623.041C1218.14 628.712 1219.04 635.606 1215.04 640.055C1214.78 640.337 1214.53 640.682 1214.27 640.964L1196.19 620.879L1196.19 620.879Z" fill="#FFFCF4"/>
<path d="M1181.69 634.535L1203.99 677.766L1163.77 654.423L1158.78 659.969L1192.67 699.292L1197.47 693.966L1163.66 660.94L1163.97 660.595L1205.65 684.879L1208.42 681.808L1185.22 637.001L1217 672.283L1221.48 667.301L1186.83 628.823L1181.69 634.535Z" fill="#FFFCF4"/>
<path d="M690.287 885.834C684.073 892.735 686.297 903.657 691.997 909.986C697.697 916.315 707.553 918.806 713.767 911.905C719.982 905.005 717.739 894.062 712.039 887.733C706.339 881.404 696.502 878.934 690.287 885.834ZM713.087 911.15C707.939 916.866 699.168 910.844 695.197 906.434C691.225 902.024 685.544 892.613 690.968 886.59C696.392 880.567 704.85 886.855 708.84 891.285C712.83 895.716 718.236 905.433 713.087 911.15Z" fill="#FFFCF4"/>
<path d="M636.633 945.412C630.418 952.312 632.643 963.235 638.343 969.564C644.043 975.893 653.898 978.383 660.113 971.483C666.328 964.582 664.085 953.639 658.385 947.31C652.685 940.982 642.848 938.511 636.633 945.412ZM659.322 970.605C654.174 976.321 645.514 970.421 641.542 966.011C637.571 961.602 631.999 952.312 637.424 946.29C642.848 940.267 651.196 946.432 655.185 950.863C659.175 955.293 664.471 964.888 659.322 970.605Z" fill="#FFFCF4"/>
<path d="M682.595 895.381L685.151 898.219L678.201 902.22L699.897 926.311L696.955 929.577L675.258 905.487L671.673 913.183L669.117 910.346L682.595 895.381Z" fill="#FFFCF4"/>
<path d="M658.759 921.846L661.296 924.664L654.365 928.686L676.061 952.776L673.138 956.022L651.423 931.952L647.837 939.608L645.3 936.791L658.759 921.846Z" fill="#FFFCF4"/>
<path d="M591.83 996.158L588.906 999.404L611.485 1024.47L614.409 1021.23L591.83 996.158Z" fill="#FFFCF4"/>
<path d="M604.885 1032.66C603.23 1034.5 600.38 1036.07 597.99 1036.07L595.011 1032.76L595.084 1032.52C597.916 1032.97 601.961 1033.25 603.634 1031.4C605.197 1029.66 605.124 1027.62 603.009 1025.27C600.068 1022 594.312 1021.29 588.944 1019.94C586.296 1019.29 582.196 1018.53 580.283 1016.41C578.132 1014.02 578.261 1010.37 580.743 1007.61C582.14 1006.06 584.163 1005.08 586.094 1004.73L589.219 1008.2L588.999 1008.45C586.094 1007.92 582.784 1007.18 581.35 1008.77C580.467 1009.75 580.706 1011.2 581.754 1012.37C583.244 1014.02 587.344 1014.65 591.315 1015.55C595.912 1016.57 601.962 1017.37 605.62 1021.43C608.232 1024.33 608.415 1028.74 604.885 1032.66L604.885 1032.66Z" fill="#FFFCF4"/>
<path d="M691.314 935.841L694.386 932.431L666.06 913.74L663.137 916.987L678.012 950.612L681.027 947.264L674.923 936.198L681.352 929.06L691.314 935.841L691.314 935.841ZM674.295 935.058L664.755 917.762L680.326 928.361L674.295 935.057L674.295 935.058Z" fill="#FFFCF4"/>
<path d="M640.741 991.991L631.64 981.885C636.641 976.332 636.954 970.228 632.78 965.593C628.606 960.959 623.2 961.326 618.163 966.92L615.221 970.187L637.8 995.257L640.742 991.991L640.741 991.991ZM618.879 967.716C619.063 967.512 619.266 967.369 619.431 967.185C621.895 964.45 626.528 965.43 629.856 969.125C633.184 972.82 633.773 977.312 631.162 980.211C630.996 980.394 630.831 980.619 630.665 980.803L618.879 967.716L618.879 967.716Z" fill="#FFFCF4"/>
<path d="M609.431 976.614L623.961 1004.78L597.76 989.573L594.505 993.186L616.588 1018.81L619.714 1015.34L597.686 993.819L597.889 993.595L625.046 1009.42L626.848 1007.42L611.734 978.222L632.438 1001.21L635.361 997.964L612.782 972.893L609.431 976.614Z" fill="#FFFCF4"/>
<path d="M690.383 886.047C684.168 892.948 686.393 903.87 692.093 910.199C697.793 916.528 707.648 919.019 713.863 912.118C720.078 905.218 717.835 894.275 712.135 887.946C706.435 881.617 696.598 879.147 690.383 886.047ZM713.183 911.363C708.035 917.079 699.264 911.057 695.292 906.647C691.321 902.237 685.639 892.825 691.063 886.803C696.488 880.78 704.946 887.068 708.935 891.498C712.925 895.928 718.331 905.646 713.183 911.363Z" fill="#FFFCF4"/>
<path d="M636.726 945.625C630.511 952.525 632.736 963.448 638.436 969.776C644.136 976.105 653.991 978.596 660.206 971.696C666.421 964.795 664.177 953.852 658.477 947.523C652.778 941.194 642.941 938.724 636.726 945.625ZM659.415 970.818C654.267 976.534 645.607 970.634 641.635 966.224C637.664 961.814 632.092 952.525 637.516 946.502C642.941 940.48 651.288 946.645 655.278 951.075C659.268 955.506 664.564 965.101 659.415 970.818Z" fill="#FFFCF4"/>
<path d="M682.688 895.594L685.243 898.431L678.293 902.433L699.99 926.523L697.048 929.79L675.351 905.7L671.766 913.396L669.21 910.558L682.688 895.594Z" fill="#FFFCF4"/>
<path d="M658.855 922.059L661.392 924.876L654.46 928.898L676.157 952.989L673.233 956.235L651.519 932.165L647.933 939.821L645.396 937.003L658.855 922.059Z" fill="#FFFCF4"/>
<path d="M591.925 996.371L589.002 999.617L611.581 1024.69L614.505 1021.44L591.925 996.371Z" fill="#FFFCF4"/>
<path d="M604.98 1032.87C603.326 1034.71 600.476 1036.28 598.085 1036.28L595.107 1032.98L595.18 1032.73C598.012 1033.18 602.057 1033.47 603.73 1031.61C605.293 1029.87 605.219 1027.83 603.105 1025.48C600.163 1022.22 594.408 1021.5 589.039 1020.15C586.392 1019.5 582.291 1018.75 580.379 1016.62C578.228 1014.23 578.356 1010.58 580.839 1007.82C582.236 1006.27 584.259 1005.29 586.189 1004.95L589.315 1008.42L589.095 1008.66C586.189 1008.13 582.88 1007.39 581.445 1008.99C580.563 1009.97 580.802 1011.42 581.85 1012.58C583.339 1014.23 587.44 1014.87 591.411 1015.77C596.008 1016.79 602.057 1017.58 605.716 1021.65C608.327 1024.54 608.511 1028.95 604.981 1032.87L604.98 1032.87Z" fill="#FFFCF4"/>
<path d="M691.408 936.054L694.479 932.644L666.154 913.953L663.231 917.199L678.105 950.824L681.121 947.476L675.017 936.41L681.445 929.273L691.408 936.054L691.408 936.054ZM674.389 935.27L664.849 917.975L680.42 928.574L674.389 935.27L674.389 935.27Z" fill="#FFFCF4"/>
<path d="M640.837 992.203L631.736 982.098C636.737 976.544 637.049 970.44 632.876 965.806C628.702 961.172 623.296 961.539 618.258 967.133L615.316 970.399L637.896 995.47L640.837 992.204L640.837 992.203ZM618.975 967.929C619.159 967.725 619.361 967.582 619.527 967.398C621.991 964.662 626.624 965.643 629.952 969.338C633.28 973.033 633.868 977.525 631.257 980.423C631.092 980.607 630.926 980.832 630.761 981.015L618.975 967.929L618.975 967.929Z" fill="#FFFCF4"/>
<path d="M609.526 976.827L624.057 1005L597.856 989.786L594.601 993.399L616.684 1019.02L619.809 1015.55L597.782 994.032L597.984 993.807L625.142 1009.63L626.944 1007.63L611.83 978.434L632.533 1001.42L635.457 998.176L612.878 973.106L609.526 976.827Z" fill="#FFFCF4"/>
<path d="M1506.52 884.895C1499.37 892.831 1501.93 905.392 1508.48 912.67C1515.04 919.948 1526.37 922.812 1533.52 914.877C1540.67 906.941 1538.09 894.357 1531.53 887.079C1524.98 879.8 1513.66 876.96 1506.52 884.895ZM1532.74 914.008C1526.82 920.582 1516.73 913.656 1512.16 908.585C1507.6 903.513 1501.06 892.69 1507.3 885.764C1513.54 878.838 1523.26 886.069 1527.85 891.164C1532.44 896.259 1538.66 907.434 1532.74 914.008Z" fill="#FFFCF4"/>
<path d="M1444.81 953.409C1437.66 961.345 1440.22 973.906 1446.78 981.184C1453.33 988.462 1464.67 991.327 1471.81 983.391C1478.96 975.456 1476.38 962.871 1469.83 955.593C1463.27 948.315 1451.96 945.474 1444.81 953.409ZM1470.9 982.382C1464.98 988.955 1455.02 982.17 1450.46 977.099C1445.89 972.028 1439.48 961.345 1445.72 954.419C1451.96 947.493 1461.56 954.583 1466.15 959.678C1470.73 964.773 1476.82 975.807 1470.9 982.382Z" fill="#FFFCF4"/>
<path d="M1497.67 895.874L1500.61 899.137L1492.62 903.739L1517.57 931.443L1514.18 935.2L1489.23 907.495L1485.11 916.347L1482.17 913.083L1497.67 895.874Z" fill="#FFFCF4"/>
<path d="M1470.26 926.309L1473.18 929.549L1465.2 934.174L1490.16 961.879L1486.79 965.612L1461.82 937.931L1457.7 946.735L1454.78 943.495L1470.26 926.309Z" fill="#FFFCF4"/>
<path d="M1393.29 1011.77L1389.93 1015.5L1415.89 1044.33L1419.26 1040.6L1393.29 1011.77Z" fill="#FFFCF4"/>
<path d="M1408.3 1053.75C1406.4 1055.86 1403.12 1057.67 1400.37 1057.67L1396.95 1053.86L1397.03 1053.58C1400.29 1054.1 1404.94 1054.43 1406.87 1052.29C1408.66 1050.3 1408.58 1047.95 1406.15 1045.25C1402.76 1041.49 1396.15 1040.67 1389.97 1039.12C1386.93 1038.37 1382.21 1037.5 1380.01 1035.06C1377.54 1032.31 1377.69 1028.11 1380.54 1024.94C1382.15 1023.15 1384.47 1022.03 1386.69 1021.63L1390.29 1025.62L1390.04 1025.9C1386.69 1025.29 1382.89 1024.45 1381.24 1026.28C1380.22 1027.4 1380.5 1029.07 1381.7 1030.41C1383.42 1032.31 1388.13 1033.04 1392.7 1034.07C1397.99 1035.25 1404.94 1036.16 1409.15 1040.83C1412.15 1044.17 1412.36 1049.24 1408.3 1053.75L1408.3 1053.75Z" fill="#FFFCF4"/>
<path d="M1507.69 942.403L1511.23 938.481L1478.65 916.987L1475.29 920.72L1492.4 959.389L1495.86 955.539L1488.85 942.813L1496.24 934.605L1507.69 942.403L1507.69 942.403ZM1488.12 941.502L1477.15 921.612L1495.06 933.801L1488.12 941.502L1488.12 941.502Z" fill="#FFFCF4"/>
<path d="M1449.54 1006.98L1439.07 995.354C1444.82 988.967 1445.18 981.948 1440.38 976.618C1435.58 971.289 1429.37 971.711 1423.57 978.144L1420.19 981.901L1446.16 1010.73L1449.54 1006.98L1449.54 1006.98ZM1424.4 979.06C1424.61 978.825 1424.84 978.661 1425.03 978.449C1427.86 975.303 1433.19 976.43 1437.02 980.68C1440.85 984.929 1441.52 990.094 1438.52 993.428C1438.33 993.64 1438.14 993.898 1437.95 994.109L1424.4 979.059L1424.4 979.06Z" fill="#FFFCF4"/>
<path d="M1413.53 989.292L1430.24 1021.69L1400.11 1004.19L1396.37 1008.35L1421.76 1037.82L1425.36 1033.82L1400.02 1009.08L1400.26 1008.82L1431.49 1027.02L1433.56 1024.71L1416.18 991.141L1439.99 1017.58L1443.35 1013.84L1417.39 985.013L1413.53 989.292Z" fill="#FFFCF4"/>
<path d="M1445.32 855.612C1439 862.631 1441.26 873.741 1447.06 880.179C1452.85 886.617 1462.88 889.15 1469.2 882.131C1475.52 875.112 1473.24 863.981 1467.44 857.543C1461.65 851.105 1451.64 848.593 1445.32 855.612ZM1468.51 881.363C1463.27 887.177 1454.35 881.051 1450.31 876.566C1446.27 872.08 1440.49 862.506 1446.01 856.38C1451.53 850.254 1460.13 856.65 1464.19 861.156C1468.25 865.663 1473.75 875.548 1468.51 881.363Z" fill="#FFFCF4"/>
<path d="M1390.74 916.214C1384.42 923.233 1386.68 934.344 1392.48 940.781C1398.28 947.219 1408.3 949.753 1414.62 942.733C1420.94 935.714 1418.66 924.583 1412.86 918.145C1407.07 911.708 1397.06 909.195 1390.74 916.214ZM1413.82 941.84C1408.58 947.655 1399.77 941.653 1395.73 937.168C1391.69 932.682 1386.02 923.233 1391.54 917.107C1397.06 910.98 1405.55 917.252 1409.61 921.759C1413.67 926.265 1419.05 936.025 1413.82 941.84Z" fill="#FFFCF4"/>
<path d="M1437.49 865.322L1440.09 868.209L1433.02 872.279L1455.09 896.784L1452.1 900.107L1430.03 875.602L1426.38 883.431L1423.78 880.545L1437.49 865.322Z" fill="#FFFCF4"/>
<path d="M1413.25 892.243L1415.83 895.109L1408.78 899.2L1430.85 923.705L1427.87 927.007L1405.78 902.523L1402.14 910.31L1399.56 907.444L1413.25 892.243Z" fill="#FFFCF4"/>
<path d="M1345.17 967.833L1342.19 971.135L1365.16 996.637L1368.13 993.335L1345.17 967.833Z" fill="#FFFCF4"/>
<path d="M1358.44 1004.96C1356.76 1006.83 1353.86 1008.43 1351.43 1008.43L1348.4 1005.07L1348.48 1004.82C1351.36 1005.28 1355.47 1005.57 1357.17 1003.68C1358.76 1001.91 1358.69 999.835 1356.54 997.447C1353.54 994.124 1347.69 993.397 1342.23 992.026C1339.54 991.362 1335.36 990.594 1333.42 988.434C1331.23 986.004 1331.36 982.287 1333.89 979.483C1335.31 977.905 1337.37 976.908 1339.33 976.555L1342.51 980.085L1342.29 980.335C1339.33 979.795 1335.96 979.047 1334.5 980.667C1333.61 981.664 1333.85 983.138 1334.92 984.322C1336.43 986.004 1340.6 986.648 1344.64 987.561C1349.32 988.6 1355.47 989.41 1359.19 993.542C1361.85 996.491 1362.04 1000.98 1358.44 1004.96L1358.44 1004.96Z" fill="#FFFCF4"/>
<path d="M1446.36 906.479L1449.48 903.01L1420.67 883.998L1417.7 887.3L1432.83 921.503L1435.9 918.098L1429.69 906.841L1436.23 899.581L1446.36 906.479L1446.36 906.479ZM1429.05 905.682L1419.34 888.089L1435.18 898.87L1429.05 905.681L1429.05 905.682Z" fill="#FFFCF4"/>
<path d="M1394.92 963.594L1385.66 953.314C1390.75 947.666 1391.07 941.456 1386.82 936.742C1382.57 932.028 1377.08 932.402 1371.95 938.092L1368.96 941.415L1391.93 966.917L1394.92 963.594L1394.92 963.594ZM1372.68 938.902C1372.87 938.694 1373.07 938.549 1373.24 938.362C1375.75 935.579 1380.46 936.576 1383.85 940.335C1387.23 944.094 1387.83 948.663 1385.17 951.611C1385.01 951.798 1384.84 952.027 1384.67 952.213L1372.68 938.902L1372.68 938.902Z" fill="#FFFCF4"/>
<path d="M1363.07 947.953L1377.85 976.606L1351.2 961.135L1347.89 964.81L1370.35 990.873L1373.53 987.343L1351.12 965.454L1351.33 965.226L1378.95 981.32L1380.79 979.285L1365.41 949.588L1386.47 972.972L1389.45 969.67L1366.48 944.168L1363.07 947.953Z" fill="#FFFCF4"/>
<path d="M749.76 901.999C742.58 909.972 745.15 922.593 751.736 929.905C758.322 937.218 769.71 940.096 776.891 932.123C784.071 924.15 781.479 911.505 774.893 904.193C768.307 896.88 756.941 894.026 749.76 901.999ZM776.104 931.25C770.156 937.855 760.022 930.896 755.433 925.801C750.844 920.705 744.279 909.831 750.546 902.872C756.814 895.913 766.587 903.178 771.197 908.297C775.807 913.416 782.053 924.645 776.104 931.25Z" fill="#FFFCF4"/>
<path d="M687.763 970.838C680.582 978.811 683.153 991.432 689.739 998.745C696.325 1006.06 707.713 1008.94 714.893 1000.96C722.074 992.989 719.482 980.345 712.896 973.032C706.31 965.719 694.944 962.865 687.763 970.838ZM713.98 999.948C708.031 1006.55 698.024 999.735 693.436 994.64C688.847 989.545 682.409 978.811 688.677 971.852C694.944 964.893 704.59 972.018 709.2 977.136C713.81 982.255 719.929 993.342 713.98 999.948Z" fill="#FFFCF4"/>
<path d="M740.871 913.029L743.824 916.308L735.793 920.932L760.863 948.768L757.463 952.542L732.394 924.706L728.251 933.6L725.298 930.321L740.871 913.029Z" fill="#FFFCF4"/>
<path d="M713.33 943.609L716.262 946.865L708.252 951.512L733.322 979.348L729.944 983.098L704.853 955.286L700.71 964.132L697.778 960.877L713.33 943.609Z" fill="#FFFCF4"/>
<path d="M635.997 1029.47L632.619 1033.22L658.708 1062.19L662.086 1058.44L635.997 1029.47Z" fill="#FFFCF4"/>
<path d="M651.081 1071.65C649.169 1073.77 645.876 1075.59 643.115 1075.59L639.673 1071.77L639.758 1071.49C643.029 1072.01 647.703 1072.34 649.637 1070.19C651.443 1068.18 651.358 1065.82 648.915 1063.11C645.516 1059.34 638.866 1058.51 632.662 1056.95C629.603 1056.2 624.865 1055.33 622.656 1052.87C620.17 1050.11 620.319 1045.89 623.187 1042.71C624.801 1040.91 627.138 1039.78 629.369 1039.38L632.981 1043.39L632.726 1043.67C629.369 1043.06 625.545 1042.21 623.888 1044.05C622.868 1045.18 623.144 1046.86 624.355 1048.2C626.076 1050.11 630.814 1050.84 635.403 1051.88C640.714 1053.06 647.704 1053.98 651.932 1058.68C654.949 1062.03 655.161 1067.12 651.082 1071.65L651.081 1071.65Z" fill="#FFFCF4"/>
<path d="M750.946 959.78L754.495 955.84L721.766 934.243L718.388 937.994L735.576 976.847L739.06 972.978L732.007 960.192L739.435 951.944L750.946 959.78L750.946 959.78ZM731.281 958.875L720.258 938.89L738.25 951.137L731.281 958.874L731.281 958.875Z" fill="#FFFCF4"/>
<path d="M692.512 1024.66L681.995 1012.98C687.774 1006.56 688.135 999.512 683.313 994.157C678.49 988.802 672.244 989.227 666.423 995.69L663.023 999.464L689.113 1028.43L692.512 1024.66L692.512 1024.66ZM667.251 996.61C667.463 996.374 667.697 996.209 667.888 995.997C670.735 992.836 676.089 993.968 679.934 998.238C683.78 1002.51 684.459 1007.7 681.443 1011.05C681.251 1011.26 681.06 1011.52 680.869 1011.73L667.251 996.61L667.251 996.61Z" fill="#FFFCF4"/>
<path d="M656.334 1006.89L673.123 1039.44L642.849 1021.86L639.088 1026.04L664.604 1055.65L668.216 1051.63L642.764 1026.77L642.998 1026.51L674.377 1044.79L676.459 1042.48L658.995 1008.75L682.918 1035.31L686.296 1031.56L660.206 1002.59L656.334 1006.89Z" fill="#FFFCF4"/>
<path d="M1300.88 1036.41C1282.68 1056.61 1289.19 1088.59 1305.88 1107.12C1322.57 1125.65 1351.43 1132.94 1369.62 1112.74C1387.82 1092.53 1381.25 1060.49 1364.56 1041.96C1347.87 1023.43 1319.07 1016.2 1300.88 1036.41ZM1367.63 1110.53C1352.56 1127.26 1326.88 1109.63 1315.25 1096.72C1303.62 1083.81 1286.99 1056.25 1302.87 1038.62C1318.75 1020.98 1343.51 1039.39 1355.2 1052.36C1366.88 1065.34 1382.7 1093.79 1367.63 1110.53Z" fill="#FFFCF4"/>
<path d="M1143.78 1210.83C1125.59 1231.04 1132.1 1263.02 1148.79 1281.55C1165.48 1300.08 1194.33 1307.37 1212.53 1287.17C1230.72 1266.96 1224.16 1234.92 1207.47 1216.39C1190.78 1197.86 1161.98 1190.63 1143.78 1210.83ZM1210.21 1284.6C1195.14 1301.33 1169.78 1284.06 1158.16 1271.15C1146.53 1258.24 1130.22 1231.04 1146.1 1213.4C1161.98 1195.77 1186.42 1213.82 1198.1 1226.79C1209.78 1239.76 1225.29 1267.86 1210.21 1284.6Z" fill="#FFFCF4"/>
<path d="M1278.34 1064.37L1285.82 1072.68L1265.47 1084.39L1328.99 1154.93L1320.38 1164.49L1256.86 1093.96L1246.36 1116.49L1238.88 1108.18L1278.34 1064.37Z" fill="#FFFCF4"/>
<path d="M1208.56 1141.84L1215.99 1150.09L1195.7 1161.86L1259.22 1232.4L1250.66 1241.9L1187.09 1171.43L1176.59 1193.84L1169.16 1185.59L1208.56 1141.84Z" fill="#FFFCF4"/>
<path d="M1303.88 1182.81L1312.87 1172.83L1229.94 1118.11L1221.38 1127.61L1264.93 1226.06L1273.76 1216.26L1255.89 1183.86L1274.71 1162.96L1303.88 1182.81L1303.88 1182.81ZM1254.05 1180.52L1226.12 1129.88L1271.71 1160.91L1254.05 1180.52L1254.05 1180.52Z" fill="#FFFCF4"/>
<path d="M759.506 395.528C741.311 415.731 747.825 447.711 764.513 466.241C781.201 484.771 810.057 492.063 828.252 471.86C846.448 451.656 839.88 419.617 823.192 401.087C806.504 382.557 777.702 375.324 759.506 395.528ZM826.261 469.648C811.187 486.385 785.508 468.752 773.88 455.84C762.251 442.929 745.617 415.373 761.498 397.739C777.38 380.106 802.143 398.516 813.825 411.487C825.507 424.458 841.335 452.911 826.261 469.648Z" fill="#FFFCF4"/>
<path d="M602.411 569.956C584.215 590.16 590.729 622.139 607.417 640.669C624.106 659.199 652.961 666.492 671.157 646.288C689.352 626.085 682.785 594.045 666.096 575.515C649.408 556.985 620.606 549.753 602.411 569.956ZM668.842 643.718C653.768 660.454 628.412 643.179 616.784 630.269C605.156 617.358 588.844 590.16 604.725 572.526C620.606 554.892 645.047 572.944 656.729 585.915C668.411 598.887 683.916 626.98 668.842 643.718Z" fill="#FFFCF4"/>
<path d="M736.966 423.49L744.448 431.799L724.1 443.514L787.624 514.048L779.01 523.613L715.486 453.079L704.988 475.614L697.505 467.305L736.966 423.49Z" fill="#FFFCF4"/>
<path d="M667.195 500.96L674.624 509.209L654.329 520.985L717.853 591.518L709.293 601.023L645.715 530.548L635.217 552.964L627.788 544.715L667.195 500.96Z" fill="#FFFCF4"/>
<path d="M471.242 718.531L462.683 728.035L528.791 801.439L537.351 791.934L471.242 718.531Z" fill="#FFFCF4"/>
<path d="M509.463 825.407C504.618 830.787 496.274 835.39 489.276 835.39L480.555 825.706L480.77 824.989C489.06 826.304 500.903 827.141 505.803 821.701C510.379 816.62 510.163 810.642 503.973 803.769C495.36 794.205 478.509 792.113 462.79 788.168C455.038 786.255 443.033 784.044 437.434 777.828C431.135 770.834 431.512 760.134 438.78 752.064C442.872 747.522 448.793 744.652 454.446 743.636L463.598 753.798L462.952 754.515C454.446 752.961 444.756 750.809 440.557 755.471C437.972 758.34 438.672 762.584 441.741 765.991C446.102 770.833 458.107 772.686 469.735 775.316C483.193 778.305 500.905 780.636 511.618 792.531C519.262 801.019 519.8 813.93 509.464 825.407L509.463 825.407Z" fill="#FFFCF4"/>
<path d="M762.508 541.935L771.5 531.951L688.568 477.228L680.008 486.732L723.559 585.181L732.388 575.378L714.517 542.979L733.338 522.081L762.507 541.936L762.508 541.935ZM712.677 539.641L684.746 489.002L730.336 520.034L712.678 539.64L712.677 539.641Z" fill="#FFFCF4"/>
<path d="M614.443 706.332L587.795 676.744C602.438 660.485 603.353 642.613 591.133 629.044C578.913 615.476 563.085 616.552 548.335 632.929L539.722 642.493L605.83 715.896L614.443 706.333L614.443 706.332ZM550.434 635.26C550.972 634.663 551.564 634.244 552.049 633.706C559.263 625.696 572.829 628.566 582.572 639.385C592.316 650.203 594.039 663.354 586.395 671.842C585.91 672.38 585.426 673.037 584.941 673.575L550.433 635.259L550.434 635.26Z" fill="#FFFCF4"/>
<path d="M522.775 661.31L565.318 743.783L488.605 699.251L479.076 709.831L543.73 784.849L552.882 774.687L488.389 711.684L488.981 711.026L568.494 757.352L573.77 751.494L529.518 666.016L590.136 733.323L598.695 723.818L532.587 650.415L522.775 661.31Z" fill="#FFFCF4"/>
<path d="M1516.6 376.328C1498.4 396.532 1504.92 428.511 1521.6 447.041C1538.29 465.571 1567.15 472.864 1585.34 452.66C1603.54 432.457 1596.97 400.417 1580.28 381.887C1563.59 363.357 1534.79 356.125 1516.6 376.328ZM1583.35 450.449C1568.28 467.185 1542.6 449.552 1530.97 436.641C1519.34 423.729 1502.71 396.174 1518.59 378.54C1534.47 360.906 1559.23 379.317 1570.92 392.288C1582.6 405.259 1598.43 433.711 1583.35 450.449Z" fill="#FFFCF4"/>
<path d="M1359.5 550.757C1341.31 570.961 1347.82 602.94 1364.51 621.47C1381.2 640 1410.05 647.293 1428.25 627.089C1446.45 606.886 1439.88 574.846 1423.19 556.316C1406.5 537.786 1377.7 530.554 1359.5 550.757ZM1425.93 624.519C1410.86 641.255 1385.5 623.98 1373.88 611.07C1362.25 598.159 1345.94 570.961 1361.82 553.327C1377.7 535.693 1402.14 553.745 1413.82 566.716C1425.5 579.688 1441.01 607.781 1425.93 624.519Z" fill="#FFFCF4"/>
<path d="M1494.06 404.291L1501.54 412.599L1481.19 424.315L1544.72 494.849L1536.1 504.413L1472.58 433.88L1462.08 456.414L1454.6 448.106L1494.06 404.291Z" fill="#FFFCF4"/>
<path d="M1424.29 481.761L1431.72 490.01L1411.42 501.785L1474.94 572.319L1466.38 581.823L1402.81 511.349L1392.31 533.765L1384.88 525.516L1424.29 481.761Z" fill="#FFFCF4"/>
<path d="M1228.33 699.332L1219.77 708.836L1285.88 782.239L1294.44 772.735L1228.33 699.332Z" fill="#FFFCF4"/>
<path d="M1266.55 806.208C1261.71 811.588 1253.36 816.19 1246.37 816.19L1237.65 806.507L1237.86 805.79C1246.15 807.105 1257.99 807.942 1262.89 802.502C1267.47 797.421 1267.25 791.443 1261.06 784.57C1252.45 775.006 1235.6 772.913 1219.88 768.969C1212.13 767.056 1200.12 764.845 1194.53 758.628C1188.23 751.635 1188.6 740.935 1195.87 732.865C1199.96 728.322 1205.88 725.453 1211.54 724.436L1220.69 734.598L1220.04 735.316C1211.54 733.762 1201.85 731.609 1197.65 736.272C1195.06 739.141 1195.76 743.385 1198.83 746.792C1203.19 751.634 1215.2 753.487 1226.83 756.117C1240.28 759.106 1258 761.437 1268.71 773.332C1276.35 781.82 1276.89 794.731 1266.55 806.208L1266.55 806.208Z" fill="#FFFCF4"/>
<path d="M1519.6 522.736L1528.59 512.751L1445.66 458.028L1437.1 467.533L1480.65 565.982L1489.48 556.179L1471.61 523.779L1490.43 502.881L1519.6 522.736L1519.6 522.736ZM1469.77 520.442L1441.84 469.803L1487.43 500.835L1469.77 520.441L1469.77 520.442Z" fill="#FFFCF4"/>
<path d="M1371.54 687.133L1344.89 657.545C1359.53 641.286 1360.45 623.414 1348.23 609.845C1336.01 596.276 1320.18 597.353 1305.43 613.73L1296.81 623.294L1362.92 696.697L1371.54 687.134L1371.54 687.133ZM1307.53 616.061C1308.06 615.463 1308.66 615.045 1309.14 614.507C1316.36 606.497 1329.92 609.366 1339.67 620.185C1349.41 631.004 1351.13 644.155 1343.49 652.643C1343 653.181 1342.52 653.838 1342.03 654.376L1307.53 616.06L1307.53 616.061Z" fill="#FFFCF4"/>
<path d="M1279.87 642.111L1322.41 724.584L1245.7 680.052L1236.17 690.632L1300.82 765.65L1309.97 755.488L1245.48 692.485L1246.07 691.827L1325.59 738.153L1330.86 732.295L1286.61 646.817L1347.23 714.124L1355.79 704.619L1289.68 631.216L1279.87 642.111Z" fill="#FFFCF4"/>
</g>
</svg>
