<svg width="1920" height="1080" viewBox="0 0 1920 1080" fill="none" xmlns="http://www.w3.org/2000/svg">
<g opacity="0.4">
<path d="M801.172 -109.375C750.89 -53.0116 768.89 36.2039 815.007 87.898C861.123 139.592 940.863 159.937 991.145 103.574C1041.43 47.2106 1023.28 -42.1727 977.161 -93.8668C931.044 -145.561 851.454 -165.738 801.172 -109.375ZM985.641 97.4037C943.987 144.095 873.025 94.9034 840.891 58.883C808.757 22.8627 762.79 -54.0109 806.676 -103.205C850.562 -152.398 918.994 -101.038 951.276 -64.8518C983.559 -28.6656 1027.3 50.7103 985.641 97.4037Z" fill="#D9DDE2"/>
<path d="M367.072 377.222C316.79 433.585 334.79 522.801 380.907 574.495C427.024 626.189 506.764 646.533 557.046 590.17C607.328 533.807 589.178 444.424 543.061 392.73C496.944 341.036 417.354 320.859 367.072 377.222ZM550.648 582.999C508.994 629.69 438.924 581.498 406.792 545.48C374.659 509.461 329.582 433.585 373.468 384.391C417.354 335.198 484.895 385.559 517.177 421.745C549.459 457.931 592.304 536.306 550.648 582.999Z" fill="#D9DDE2"/>
<path d="M738.911 -31.4155L759.589 -8.23669L703.357 24.4479L878.901 221.221L855.097 247.903L679.554 51.1303L650.543 113.997L629.865 90.8184L738.911 -31.4155Z" fill="#D9DDE2"/>
<path d="M546.109 184.703L566.639 207.716L510.555 240.566L686.098 437.339L662.444 463.853L486.753 267.247L457.743 329.781L437.213 306.769L546.109 184.703Z" fill="#D9DDE2"/>
<path d="M4.5739 791.731L-19.0801 818.245L163.604 1023.02L187.258 996.508L4.5739 791.731Z" fill="#D9DDE2"/>
<path d="M110.2 1089.89C96.8113 1104.9 73.7529 1117.74 54.4139 1117.74L30.3142 1090.72L30.9079 1088.72C53.8184 1092.39 86.5463 1094.73 100.085 1079.55C112.73 1065.38 112.135 1048.7 95.0283 1029.52C71.2264 1002.84 24.6619 997.005 -18.7768 986.001C-40.1983 980.664 -73.3738 974.496 -88.8454 957.154C-106.252 937.642 -105.21 907.794 -85.1259 885.281C-73.8196 872.607 -57.4565 864.602 -41.8352 861.766L-16.5444 890.115L-18.3292 892.116C-41.8352 887.781 -68.6131 881.777 -80.2172 894.784C-87.3583 902.789 -85.4237 914.627 -76.9435 924.133C-64.8936 937.64 -31.7181 942.809 0.414241 950.146C37.6051 958.485 86.5499 964.988 116.154 998.173C137.28 1021.85 138.765 1057.87 110.202 1089.89L110.2 1089.89Z" fill="#D9DDE2"/>
<path d="M809.498 299.018L834.347 271.164L605.171 118.5L581.517 145.015L701.868 419.665L726.265 392.317L676.88 301.93L728.891 243.63L809.497 299.02L809.498 299.018ZM671.796 292.619L594.61 151.349L720.593 237.921L671.798 292.617L671.796 292.619Z" fill="#D9DDE2"/>
<path d="M400.32 757.68L326.681 675.136C367.146 629.778 369.674 579.918 335.905 542.065C302.136 504.212 258.397 507.214 217.637 552.904L193.835 579.584L376.519 784.362L400.321 757.682L400.32 757.68ZM223.437 559.406C224.924 557.739 226.561 556.572 227.9 555.071C247.835 532.725 285.323 540.73 312.249 570.912C339.175 601.094 343.936 637.782 322.812 661.461C321.473 662.962 320.134 664.794 318.795 666.295L223.435 559.404L223.437 559.406Z" fill="#D9DDE2"/>
<path d="M146.996 632.085L264.561 862.165L52.57 737.931L26.2379 767.447L204.905 976.728L230.196 948.378L51.9745 772.616L53.6114 770.781L273.339 900.018L287.917 883.677L165.632 645.213L333.142 832.982L356.796 806.468L174.112 601.69L146.996 632.085Z" fill="#D9DDE2"/>
<path d="M333.587 39.2561C320.198 54.2642 297.14 67.1038 277.801 67.1038L253.701 40.0895L254.295 38.0889C277.205 41.7564 309.933 44.093 323.472 28.9169C336.117 14.7422 335.522 -1.93491 318.415 -21.1103C294.613 -47.7908 248.049 -53.629 204.61 -64.6337C183.188 -69.9702 150.013 -76.1381 134.541 -93.4807C117.135 -112.992 118.176 -142.84 138.261 -165.354C149.567 -178.027 165.93 -186.032 181.552 -188.868L206.842 -160.519L205.058 -158.518C181.552 -162.853 154.774 -168.857 143.17 -155.85C136.028 -147.845 137.963 -136.007 146.443 -126.501C158.493 -112.994 191.669 -107.825 223.801 -100.488C260.992 -92.1497 309.937 -85.646 339.541 -52.4618C360.666 -28.7813 362.152 7.23706 333.589 39.254L333.587 39.2561Z" fill="#D9DDE2"/>
<path d="M1486.09 18.1462C1472.71 33.1544 1449.65 45.9939 1430.31 45.994L1406.21 18.9797L1406.8 16.979C1429.71 20.6466 1462.44 22.9831 1475.98 7.80702C1488.62 -6.36768 1488.03 -23.0448 1470.92 -42.2202C1447.12 -68.9006 1400.56 -74.7388 1357.12 -85.7436C1335.7 -91.0801 1302.52 -97.248 1287.05 -114.591C1269.64 -134.102 1270.68 -163.95 1290.77 -186.463C1302.07 -199.137 1318.44 -207.142 1334.06 -209.978L1359.35 -181.629L1357.57 -179.628C1334.06 -183.963 1307.28 -189.967 1295.68 -176.96C1288.54 -168.955 1290.47 -157.117 1298.95 -147.611C1311 -134.104 1344.18 -128.935 1376.31 -121.598C1413.5 -113.26 1462.44 -106.756 1492.05 -73.5716C1513.17 -49.8912 1514.66 -13.8728 1486.1 18.1442L1486.09 18.1462Z" fill="#D9DDE2"/>
<path d="M1957.36 -145.352C1907.08 -88.9886 1925.08 0.226862 1971.2 51.9209C2017.31 103.615 2097.05 123.96 2147.33 67.5966C2197.62 11.2336 2179.47 -78.1498 2133.35 -129.844C2087.23 -181.538 2007.64 -201.715 1957.36 -145.352ZM2141.83 61.4266C2100.18 108.118 2029.21 58.9264 1997.08 22.906C1964.95 -13.1144 1918.98 -89.9879 1962.86 -139.182C2006.75 -188.375 2075.18 -137.015 2107.46 -100.829C2139.75 -64.6426 2183.49 14.7332 2141.83 61.4266Z" fill="#D9DDE2"/>
<path d="M1523.26 341.245C1472.98 397.608 1490.98 486.824 1537.1 538.518C1583.21 590.212 1662.95 610.556 1713.23 554.193C1763.52 497.83 1745.37 408.447 1699.25 356.753C1653.13 305.059 1573.54 284.882 1523.26 341.245ZM1706.84 547.022C1665.18 593.713 1595.11 545.521 1562.98 509.503C1530.85 473.484 1485.77 397.608 1529.66 348.414C1573.54 299.221 1641.08 349.582 1673.37 385.768C1705.65 421.954 1748.49 500.329 1706.84 547.022Z" fill="#D9DDE2"/>
<path d="M1895.1 -67.3925L1915.78 -44.2137L1859.55 -11.5292L2035.09 185.244L2011.29 211.926L1835.74 15.1533L1806.73 78.0201L1786.06 54.8413L1895.1 -67.3925Z" fill="#D9DDE2"/>
<path d="M1702.3 148.726L1722.83 171.739L1666.75 204.589L1842.29 401.362L1818.63 427.876L1642.94 231.269L1613.93 293.804L1593.4 270.792L1702.3 148.726Z" fill="#D9DDE2"/>
<path d="M1160.76 755.752L1137.11 782.266L1319.79 987.044L1343.45 960.529L1160.76 755.752Z" fill="#D9DDE2"/>
<path d="M1266.39 1053.91C1253 1068.92 1229.94 1081.76 1210.6 1081.76L1186.5 1054.75L1187.1 1052.74C1210.01 1056.41 1242.73 1058.75 1256.27 1043.57C1268.92 1029.4 1268.32 1012.72 1251.22 993.545C1227.41 966.865 1180.85 961.027 1137.41 950.022C1115.99 944.686 1082.81 938.518 1067.34 921.175C1049.94 901.664 1050.98 871.815 1071.06 849.302C1082.37 836.628 1098.73 828.624 1114.35 825.788L1139.64 854.137L1137.86 856.138C1114.35 851.803 1087.58 845.798 1075.97 858.806C1068.83 866.811 1070.76 878.649 1079.24 888.155C1091.29 901.662 1124.47 906.83 1156.6 914.168C1193.79 922.506 1242.74 929.01 1272.34 962.194C1293.47 985.874 1294.95 1021.89 1266.39 1053.91L1266.39 1053.91Z" fill="#D9DDE2"/>
<path d="M1965.69 263.04L1990.54 235.186L1761.36 82.5224L1737.71 109.037L1858.06 383.687L1882.45 356.339L1833.07 265.952L1885.08 207.652L1965.69 263.042L1965.69 263.04ZM1827.98 256.641L1750.8 115.371L1876.78 201.943L1827.99 256.639L1827.98 256.641Z" fill="#D9DDE2"/>
<path d="M1556.51 721.702L1482.87 639.158C1523.34 593.8 1525.86 543.941 1492.09 506.088C1458.33 468.234 1414.59 471.236 1373.83 516.926L1350.02 543.607L1532.71 748.385L1556.51 721.704L1556.51 721.702ZM1379.63 523.428C1381.11 521.761 1382.75 520.594 1384.09 519.093C1404.02 496.748 1441.51 504.752 1468.44 534.935C1495.36 565.117 1500.13 601.805 1479 625.483C1477.66 626.984 1476.32 628.817 1474.98 630.318L1379.62 523.426L1379.63 523.428Z" fill="#D9DDE2"/>
<path d="M1303.18 596.106L1420.75 826.186L1208.76 701.952L1182.42 731.468L1361.09 940.749L1386.38 912.399L1208.16 736.637L1209.8 734.802L1429.52 864.039L1444.1 847.698L1321.82 609.234L1489.33 797.003L1512.98 770.489L1330.3 565.711L1303.18 596.106Z" fill="#D9DDE2"/>
<path d="M638.503 1051.54C588.221 1107.9 606.221 1197.12 652.338 1248.81C698.454 1300.51 778.194 1320.85 828.476 1264.49C878.758 1208.13 860.609 1118.74 814.492 1067.05C768.375 1015.35 688.785 995.178 638.503 1051.54ZM822.972 1258.32C781.318 1305.01 710.356 1255.82 678.222 1219.8C646.088 1183.78 600.121 1106.9 644.007 1057.71C687.894 1008.52 756.325 1059.88 788.607 1096.06C820.89 1132.25 864.628 1211.63 822.972 1258.32Z" fill="#D9DDE2"/>
<path d="M1784.11 1024.1C1733.82 1080.46 1751.82 1169.68 1797.94 1221.37C1844.06 1273.07 1923.8 1293.41 1974.08 1237.05C2024.36 1180.68 2006.21 1091.3 1960.1 1039.61C1913.98 987.913 1834.39 967.737 1784.11 1024.1ZM1968.58 1230.88C1926.92 1277.57 1855.96 1228.38 1823.83 1192.36C1791.69 1156.34 1745.72 1079.46 1789.61 1030.27C1833.5 981.076 1901.93 1032.44 1934.21 1068.62C1966.49 1104.81 2010.23 1184.18 1968.58 1230.88Z" fill="#D9DDE2"/>
<path d="M1169.02 -54.1001C1132.05 -12.6574 1145.28 52.9412 1179.19 90.9509C1213.1 128.961 1271.73 143.92 1308.7 102.477C1345.67 61.0343 1332.33 -4.68772 1298.42 -42.6974C1264.51 -80.7072 1205.99 -95.5428 1169.02 -54.1001ZM1304.65 97.9403C1274.03 132.272 1221.85 96.1019 1198.22 69.6168C1174.59 43.1316 1140.8 -13.3921 1173.06 -49.5634C1205.33 -85.7347 1255.65 -47.9704 1279.39 -21.3633C1303.12 5.24382 1335.28 63.6075 1304.65 97.9403Z" fill="#D9DDE2"/>
<path d="M849.828 303.689C812.857 345.132 826.092 410.73 860.001 448.74C893.91 486.75 952.541 501.709 989.513 460.266C1026.48 418.823 1013.14 353.101 979.23 315.092C945.321 277.082 886.8 262.246 849.828 303.689ZM984.809 454.993C954.181 489.324 902.66 453.889 879.033 427.406C855.407 400.922 822.262 345.132 854.531 308.96C886.8 272.789 936.461 309.819 960.198 336.426C983.934 363.033 1015.44 420.66 984.809 454.993Z" fill="#D9DDE2"/>
<path d="M1123.24 3.22131L1138.44 20.2642L1097.1 44.2966L1226.17 188.98L1208.67 208.599L1079.59 63.9158L1058.26 110.141L1043.06 93.0977L1123.24 3.22131Z" fill="#D9DDE2"/>
<path d="M981.47 162.132L996.565 179.053L955.328 203.208L1084.4 347.891L1067.01 367.387L937.827 222.825L916.496 268.806L901.4 251.885L981.47 162.132Z" fill="#D9DDE2"/>
<path d="M583.295 608.464L565.902 627.96L700.227 778.529L717.619 759.034L583.295 608.464Z" fill="#D9DDE2"/>
<path d="M660.957 827.698C651.113 838.733 634.158 848.174 619.939 848.174L602.219 828.311L602.655 826.839C619.501 829.536 643.565 831.254 653.52 820.095C662.818 809.673 662.38 797.411 649.802 783.311C632.301 763.694 598.063 759.401 566.123 751.309C550.372 747.386 525.979 742.85 514.603 730.099C501.804 715.752 502.57 693.805 517.338 677.252C525.651 667.933 537.682 662.047 549.168 659.962L567.764 680.807L566.452 682.278C549.168 679.09 529.479 674.676 520.947 684.24C515.696 690.125 517.119 698.83 523.354 705.819C532.214 715.751 556.607 719.551 580.234 724.946C607.579 731.077 643.568 735.859 665.335 760.259C680.868 777.671 681.96 804.155 660.959 827.696L660.957 827.698Z" fill="#D9DDE2"/>
<path d="M1175.14 246.183L1193.41 225.703L1024.9 113.452L1007.51 132.947L1096 334.893L1113.94 314.784L1077.63 248.324L1115.87 205.457L1175.14 246.185L1175.14 246.183ZM1073.89 241.478L1017.14 137.605L1109.77 201.259L1073.89 241.476L1073.89 241.478Z" fill="#D9DDE2"/>
<path d="M874.279 583.433L820.134 522.74C849.887 489.388 851.746 452.728 826.916 424.895C802.086 397.062 769.926 399.27 739.955 432.865L722.454 452.482L856.779 603.052L874.28 583.434L874.279 583.433ZM744.22 437.645C745.313 436.42 746.517 435.561 747.502 434.458C762.159 418.028 789.724 423.913 809.522 446.106C829.32 468.298 832.821 495.274 817.289 512.685C816.304 513.788 815.319 515.136 814.335 516.239L744.219 437.644L744.22 437.645Z" fill="#D9DDE2"/>
<path d="M688.016 491.081L774.459 660.255L618.586 568.908L599.224 590.611L730.595 744.491L749.191 723.646L618.148 594.411L619.352 593.062L780.913 688.088L791.632 676.072L701.718 500.735L824.886 638.798L842.278 619.302L707.953 468.732L688.016 491.081Z" fill="#D9DDE2"/>
<path d="M11.223 -21.6484C-25.7485 19.7943 -12.5135 85.3929 21.3954 123.403C55.3043 161.412 113.936 176.371 150.907 134.929C187.879 93.4859 174.534 27.7639 140.625 -10.2458C106.716 -48.2555 48.1945 -63.0911 11.223 -21.6484ZM146.86 130.392C116.233 164.723 64.0556 128.554 40.4279 102.068C16.8002 75.5833 -16.9986 19.0595 15.2702 -17.1117C47.539 -53.283 97.8557 -15.5187 121.592 11.0884C145.329 37.6955 177.489 96.0592 146.86 130.392Z" fill="#D9DDE2"/>
<path d="M-34.5537 35.6735L-19.3495 52.7164L-60.6959 76.7488L68.3779 221.432L50.8754 241.051L-78.1984 96.3679L-99.5292 142.593L-114.733 125.55L-34.5537 35.6735Z" fill="#D9DDE2"/>
<path d="M17.348 278.636L35.6188 258.155L-132.89 145.904L-150.282 165.4L-61.7906 367.345L-43.8516 347.237L-80.1635 280.777L-41.9214 237.91L17.3467 278.637L17.348 278.636ZM-83.9018 273.93L-140.655 170.057L-48.0224 233.712L-83.9005 273.929L-83.9018 273.93Z" fill="#D9DDE2"/>
<path d="M438.187 -12.2317L421.722 6.2251L548.888 148.771L565.354 130.314L438.187 -12.2317Z" fill="#D9DDE2"/>
<path d="M511.711 195.317C502.391 205.764 486.34 214.702 472.878 214.702L456.103 195.897L456.516 194.505C472.464 197.058 495.246 198.684 504.67 188.12C513.472 178.253 513.058 166.644 501.15 153.296C484.582 134.724 452.168 130.66 421.93 123C407.019 119.285 383.925 114.991 373.156 102.919C361.039 89.3374 361.764 68.56 375.745 52.8885C383.615 44.0664 395.005 38.4943 405.879 36.52L423.484 56.2541L422.242 57.6467C405.879 54.629 387.239 50.4496 379.162 59.5041C374.191 65.0762 375.538 73.3168 381.441 79.9337C389.828 89.336 412.922 92.9339 435.289 98.0413C461.178 103.846 495.248 108.373 515.856 131.472C530.561 147.956 531.595 173.029 511.712 195.316L511.711 195.317Z" fill="#D9DDE2"/>
<path d="M537.327 -123.361L619.163 36.798L471.597 -49.6816L453.267 -29.1351L577.637 116.545L595.242 96.8111L471.182 -25.5372L472.322 -26.8144L625.274 63.1475L635.422 51.7724L550.299 -114.222L666.903 16.4838L683.369 -1.97299L556.202 -144.519L537.327 -123.361Z" fill="#D9DDE2"/>
<path d="M1591.33 -45.3035L1574.86 -26.8467L1702.03 115.699L1718.49 97.2421L1591.33 -45.3035Z" fill="#D9DDE2"/>
<path d="M1664.85 162.245C1655.53 172.692 1639.48 181.63 1626.02 181.63L1609.24 162.825L1609.65 161.432C1625.6 163.985 1648.38 165.612 1657.81 155.048C1666.61 145.181 1666.2 133.572 1654.29 120.224C1637.72 101.652 1605.31 97.5877 1575.07 89.9273C1560.16 86.2126 1537.06 81.9191 1526.29 69.8469C1514.18 56.2652 1514.9 35.4877 1528.88 19.8163C1536.75 10.9941 1548.14 5.42204 1559.02 3.44778L1576.62 23.1818L1575.38 24.5744C1559.02 21.5568 1540.38 17.3773 1532.3 26.4318C1527.33 32.0039 1528.68 40.2445 1534.58 46.8615C1542.97 56.2638 1566.06 59.8616 1588.43 64.969C1614.32 70.7735 1648.39 75.3007 1668.99 98.4002C1683.7 114.884 1684.73 139.957 1664.85 162.244L1664.85 162.245Z" fill="#D9DDE2"/>
<path d="M1690.46 -156.432L1772.3 3.72619L1624.73 -82.7533L1606.4 -62.2068L1730.77 83.4733L1748.38 63.7393L1624.32 -58.609L1625.46 -59.8862L1778.41 30.0758L1788.56 18.7006L1703.44 -147.294L1820.04 -16.588L1836.51 -35.0448L1709.34 -177.59L1690.46 -156.432Z" fill="#D9DDE2"/>
<path d="M1760.81 567.57L1744.35 586.026L1871.51 728.572L1887.98 710.115L1760.81 567.57Z" fill="#D9DDE2"/>
<path d="M1834.34 775.119C1825.02 785.566 1808.97 794.504 1795.51 794.504L1778.73 775.699L1779.14 774.306C1795.09 776.859 1817.87 778.486 1827.3 767.922C1836.1 758.055 1835.68 746.446 1823.78 733.098C1807.21 714.526 1774.79 710.462 1744.56 702.801C1729.65 699.087 1706.55 694.793 1695.78 682.721C1683.67 669.139 1684.39 648.362 1698.37 632.69C1706.24 623.868 1717.63 618.296 1728.51 616.322L1746.11 636.056L1744.87 637.448C1728.51 634.431 1709.87 630.251 1701.79 639.306C1696.82 644.878 1698.16 653.119 1704.07 659.735C1712.46 669.138 1735.55 672.736 1757.92 677.843C1783.8 683.647 1817.88 688.175 1838.48 711.274C1853.19 727.758 1854.22 752.831 1834.34 775.118L1834.34 775.119Z" fill="#D9DDE2"/>
<path d="M2036.28 543.87L1985.02 486.412C2013.19 454.838 2014.95 420.131 1991.44 393.781C1967.94 367.432 1937.49 369.521 1909.12 401.326L1892.55 419.898L2019.72 562.444L2036.28 543.872L2036.28 543.87ZM1913.16 405.852C1914.19 404.692 1915.33 403.879 1916.26 402.834C1930.14 387.28 1956.23 392.852 1974.98 413.862C1993.72 434.871 1997.03 460.41 1982.33 476.892C1981.4 477.937 1980.47 479.213 1979.53 480.258L1913.15 405.851L1913.16 405.852Z" fill="#D9DDE2"/>
<path d="M1859.95 456.441L1941.79 616.6L1794.22 530.12L1775.89 550.667L1900.26 696.347L1917.86 676.613L1793.8 554.265L1794.94 552.987L1947.9 642.949L1958.04 631.574L1872.92 465.58L1989.53 596.286L2005.99 577.829L1878.82 435.283L1859.95 456.441Z" fill="#D9DDE2"/>
<path d="M-2.69182 349.38C-30.4359 380.48 -20.5041 429.706 4.94174 458.229C30.3876 486.752 74.3857 497.978 102.13 466.879C129.874 435.779 119.859 386.46 94.4136 357.937C68.9677 329.414 25.0523 318.281 -2.69182 349.38ZM99.0927 463.474C76.1093 489.237 36.9547 462.095 19.224 442.22C1.49338 422.345 -23.8698 379.928 0.345273 352.785C24.5604 325.641 62.3189 353.98 80.1313 373.947C97.9436 393.913 122.077 437.71 99.0927 463.474Z" fill="#D9DDE2"/>
<path d="M-37.0631 392.423L-25.6536 405.213L-56.6807 423.247L40.1787 531.82L27.0446 546.543L-69.8149 437.97L-85.8219 472.658L-97.2314 459.868L-37.0631 392.423Z" fill="#D9DDE2"/>
<path d="M1.88606 574.747L15.5968 559.378L-110.855 475.142L-123.907 489.772L-57.5011 641.316L-44.0393 626.226L-71.2884 576.353L-42.5908 544.185L1.88507 574.748L1.88606 574.747ZM-74.0937 571.216L-116.683 493.267L-47.1691 541.035L-74.0927 571.214L-74.0937 571.216Z" fill="#D9DDE2"/>
<path d="M361.36 198.799C342.482 219.961 349.24 253.457 366.555 272.866C383.869 292.274 413.808 299.913 432.686 278.751C451.565 257.59 444.751 224.031 427.436 204.622C410.121 185.213 380.239 177.638 361.36 198.799ZM430.62 276.435C414.981 293.965 388.338 275.496 376.273 261.972C364.208 248.448 346.95 219.586 363.427 201.116C379.904 182.646 405.597 201.929 417.717 215.516C429.838 229.102 446.259 258.904 430.62 276.435Z" fill="#D9DDE2"/>
<path d="M198.372 381.5C179.494 402.661 186.252 436.157 203.566 455.566C220.881 474.975 250.82 482.613 269.698 461.451C288.577 440.29 281.762 406.731 264.448 387.322C247.133 367.913 217.251 360.338 198.372 381.5ZM267.296 458.759C251.657 476.289 225.349 458.195 213.285 444.672C201.221 431.149 184.296 402.661 200.774 384.191C217.251 365.721 242.609 384.63 254.729 398.216C266.85 411.802 282.936 441.228 267.296 458.759Z" fill="#D9DDE2"/>
<path d="M337.976 228.088L345.739 236.79L324.627 249.062L390.535 322.94L381.598 332.958L315.69 259.08L304.798 282.683L297.034 273.98L337.976 228.088Z" fill="#D9DDE2"/>
<path d="M265.586 309.231L273.295 317.871L252.238 330.205L318.146 404.083L309.265 414.038L243.301 340.222L232.409 363.701L224.701 355.061L265.586 309.231Z" fill="#D9DDE2"/>
<path d="M62.2794 537.12L53.3984 547.075L121.988 623.959L130.869 614.004L62.2794 537.12Z" fill="#D9DDE2"/>
<path d="M101.937 649.065C96.9098 654.7 88.2525 659.521 80.9916 659.521L71.9434 649.378L72.1663 648.627C80.768 650.004 93.0558 650.881 98.1389 645.183C102.887 639.861 102.663 633.6 96.2404 626.4C87.3039 616.383 69.8212 614.191 53.5121 610.059C45.4693 608.056 33.0135 605.74 27.2047 599.229C20.6695 591.903 21.0605 580.697 28.6012 572.244C32.8462 567.486 38.9897 564.48 44.8547 563.415L54.3502 574.059L53.6801 574.81C44.8547 573.183 34.8009 570.928 30.4442 575.812C27.763 578.818 28.4894 583.262 31.6733 586.831C36.1974 591.902 48.6532 593.843 60.7174 596.598C74.6807 599.728 93.0572 602.17 104.172 614.629C112.104 623.52 112.661 637.043 101.937 649.064L101.937 649.065Z" fill="#D9DDE2"/>
<path d="M364.478 352.149L373.807 341.691L287.763 284.373L278.882 294.328L324.068 397.446L333.228 387.178L314.686 353.242L334.213 331.353L364.477 352.15L364.478 352.149ZM312.777 349.746L283.798 296.706L331.098 329.21L312.778 349.746L312.777 349.746Z" fill="#D9DDE2"/>
<path d="M210.854 524.343L183.206 493.351C198.399 476.322 199.348 457.602 186.67 443.39C173.991 429.178 157.569 430.305 142.266 447.459L133.329 457.477L201.918 534.361L210.855 524.343L210.854 524.343ZM144.443 449.9C145.002 449.275 145.616 448.836 146.119 448.273C153.603 439.883 167.679 442.889 177.788 454.221C187.897 465.552 189.685 479.327 181.754 488.217C181.251 488.781 180.748 489.469 180.245 490.032L144.443 449.9L144.443 449.9Z" fill="#D9DDE2"/>
<path d="M115.745 477.186L159.884 563.57L80.2922 516.925L70.4057 528.008L137.487 606.582L146.982 595.939L80.0686 529.948L80.6831 529.259L163.18 577.782L168.654 571.646L122.741 482.115L185.633 552.613L194.514 542.658L125.925 465.774L115.745 477.186Z" fill="#D9DDE2"/>
<path d="M1519.16 163.78C1500.28 184.941 1507.04 218.438 1524.36 237.846C1541.67 257.255 1571.61 264.893 1590.49 243.732C1609.37 222.57 1602.55 189.011 1585.24 169.602C1567.92 150.194 1538.04 142.618 1519.16 163.78ZM1588.42 241.415C1572.78 258.946 1546.14 240.476 1534.07 226.953C1522.01 213.429 1504.75 184.566 1521.23 166.096C1537.71 147.627 1563.4 166.91 1575.52 180.496C1587.64 194.082 1604.06 223.884 1588.42 241.415Z" fill="#D9DDE2"/>
<path d="M1356.17 346.481C1337.29 367.642 1344.05 401.138 1361.36 420.547C1378.68 439.956 1408.62 447.594 1427.49 426.432C1446.37 405.271 1439.56 371.712 1422.24 352.303C1404.93 332.894 1375.05 325.319 1356.17 346.481ZM1425.09 423.74C1409.45 441.27 1383.15 423.176 1371.08 409.653C1359.02 396.13 1342.09 367.642 1358.57 349.172C1375.05 330.702 1400.41 349.611 1412.53 363.197C1424.65 376.783 1440.73 406.209 1425.09 423.74Z" fill="#D9DDE2"/>
<path d="M1495.78 193.069L1503.54 201.772L1482.43 214.043L1548.33 287.922L1539.4 297.94L1473.49 224.061L1462.6 247.664L1454.83 238.962L1495.78 193.069Z" fill="#D9DDE2"/>
<path d="M1423.39 274.213L1431.09 282.853L1410.04 295.187L1475.95 369.065L1467.06 379.02L1401.1 305.204L1390.21 328.683L1382.5 320.042L1423.39 274.213Z" fill="#D9DDE2"/>
<path d="M1220.08 502.1L1211.2 512.055L1279.78 588.939L1288.67 578.984L1220.08 502.1Z" fill="#D9DDE2"/>
<path d="M1259.73 614.046C1254.7 619.68 1246.05 624.501 1238.79 624.501L1229.74 614.358L1229.96 613.607C1238.56 614.984 1250.85 615.862 1255.93 610.164C1260.68 604.842 1260.46 598.58 1254.04 591.381C1245.1 581.364 1227.62 579.172 1211.31 575.04C1203.26 573.036 1190.81 570.721 1185 564.209C1178.46 556.884 1178.86 545.677 1186.4 537.224C1190.64 532.466 1196.78 529.461 1202.65 528.396L1212.15 539.04L1211.48 539.791C1202.65 538.163 1192.6 535.909 1188.24 540.793C1185.56 543.798 1186.28 548.243 1189.47 551.812C1193.99 556.883 1206.45 558.823 1218.51 561.578C1232.48 564.709 1250.85 567.151 1261.97 579.61C1269.9 588.501 1270.46 602.024 1259.73 614.045L1259.73 614.046Z" fill="#D9DDE2"/>
<path d="M1522.27 317.13L1531.6 306.672L1445.56 249.354L1436.68 259.309L1481.86 362.427L1491.02 352.159L1472.48 318.223L1492.01 296.334L1522.27 317.13L1522.27 317.13ZM1470.57 314.727L1441.59 261.687L1488.89 294.19L1470.57 314.726L1470.57 314.727Z" fill="#D9DDE2"/>
<path d="M1368.65 489.323L1341.01 458.332C1356.2 441.302 1357.15 422.582 1344.47 408.37C1331.79 394.158 1315.37 395.285 1300.07 412.44L1291.13 422.457L1359.72 499.341L1368.66 489.324L1368.65 489.323ZM1302.24 414.881C1302.8 414.255 1303.42 413.817 1303.92 413.253C1311.4 404.864 1325.48 407.869 1335.59 419.201C1345.7 430.533 1347.49 444.307 1339.55 453.198C1339.05 453.761 1338.55 454.449 1338.05 455.013L1302.24 414.88L1302.24 414.881Z" fill="#D9DDE2"/>
<path d="M1273.54 442.167L1317.68 528.551L1238.09 481.907L1228.21 492.989L1295.29 571.564L1304.78 560.92L1237.87 494.93L1238.48 494.241L1320.98 542.763L1326.45 536.628L1280.54 447.096L1343.43 517.594L1352.31 507.639L1283.73 430.755L1273.54 442.167Z" fill="#D9DDE2"/>
<path d="M1606.57 722.952C1590.15 741.357 1596.03 770.49 1611.09 787.371C1626.15 804.251 1652.18 810.895 1668.6 792.489C1685.02 774.084 1679.1 744.897 1664.04 728.016C1648.98 711.136 1622.99 704.547 1606.57 722.952ZM1666.81 790.475C1653.2 805.722 1630.03 789.658 1619.54 777.896C1609.05 766.134 1594.04 741.031 1608.37 724.967C1622.7 708.903 1645.04 725.674 1655.59 737.491C1666.13 749.307 1680.41 775.227 1666.81 790.475Z" fill="#D9DDE2"/>
<path d="M1464.82 881.844C1448.4 900.249 1454.28 929.382 1469.34 946.263C1484.4 963.143 1510.44 969.787 1526.86 951.382C1543.27 932.976 1537.35 903.789 1522.29 886.908C1507.23 870.028 1481.24 863.439 1464.82 881.844ZM1524.77 949.04C1511.16 964.287 1488.28 948.55 1477.79 936.788C1467.3 925.026 1452.58 900.249 1466.91 884.185C1481.24 868.121 1503.29 884.566 1513.84 896.383C1524.38 908.199 1538.37 933.792 1524.77 949.04Z" fill="#D9DDE2"/>
<path d="M1586.24 748.415L1592.99 755.984L1574.63 766.657L1631.95 830.912L1624.18 839.625L1566.86 775.37L1557.39 795.899L1550.63 788.33L1586.24 748.415Z" fill="#D9DDE2"/>
<path d="M1523.28 818.99L1529.98 826.505L1511.67 837.232L1568.99 901.487L1561.27 910.146L1503.9 845.944L1494.42 866.365L1487.72 858.85L1523.28 818.99Z" fill="#D9DDE2"/>
<path d="M1346.46 1017.19L1338.73 1025.85L1398.39 1092.72L1406.11 1084.06L1346.46 1017.19Z" fill="#D9DDE2"/>
<path d="M1380.95 1114.56C1376.58 1119.46 1369.05 1123.65 1362.73 1123.65L1354.86 1114.83L1355.06 1114.17C1362.54 1115.37 1373.23 1116.14 1377.65 1111.18C1381.78 1106.55 1381.58 1101.11 1376 1094.84C1368.22 1086.13 1353.02 1084.22 1338.83 1080.63C1331.84 1078.89 1321 1076.87 1315.95 1071.21C1310.27 1064.84 1310.61 1055.09 1317.17 1047.74C1320.86 1043.6 1326.2 1040.99 1331.3 1040.06L1339.56 1049.32L1338.98 1049.97C1331.3 1048.56 1322.56 1046.6 1318.77 1050.85C1316.44 1053.46 1317.07 1057.32 1319.84 1060.43C1323.77 1064.84 1334.61 1066.53 1345.1 1068.92C1357.24 1071.65 1373.23 1073.77 1382.89 1084.61C1389.79 1092.34 1390.28 1104.1 1380.95 1114.56L1380.95 1114.56Z" fill="#D9DDE2"/>
<path d="M1609.29 856.317L1617.41 847.222L1542.57 797.37L1534.85 806.028L1574.15 895.714L1582.11 886.784L1565.99 857.268L1582.97 838.231L1609.29 856.318L1609.29 856.317ZM1564.33 854.228L1539.12 808.097L1580.26 836.366L1564.33 854.227L1564.33 854.228Z" fill="#D9DDE2"/>
<path d="M1475.68 1006.08L1451.63 979.126C1464.85 964.315 1465.67 948.033 1454.65 935.673C1443.62 923.312 1429.34 924.292 1416.03 939.212L1408.25 947.924L1467.91 1014.79L1475.68 1006.08L1475.68 1006.08ZM1417.92 941.335C1418.4 940.791 1418.94 940.41 1419.38 939.919C1425.89 932.623 1438.13 935.237 1446.92 945.092C1455.71 954.948 1457.27 966.929 1450.37 974.661C1449.93 975.151 1449.5 975.749 1449.06 976.239L1417.92 941.334L1417.92 941.335Z" fill="#D9DDE2"/>
<path d="M1392.96 965.066L1431.35 1040.2L1362.13 999.63L1353.53 1009.27L1411.87 1077.61L1420.13 1068.35L1361.93 1010.96L1362.47 1010.36L1434.22 1052.56L1438.98 1047.22L1399.05 969.353L1453.74 1030.67L1461.47 1022.01L1401.81 955.141L1392.96 965.066Z" fill="#D9DDE2"/>
<path d="M1110.66 636.404C1094.25 654.809 1100.12 683.942 1115.18 700.823C1130.24 717.703 1156.28 724.347 1172.7 705.942C1189.12 687.537 1183.19 658.349 1168.13 641.468C1153.07 624.588 1127.08 617.999 1110.66 636.404ZM1170.9 703.927C1157.3 719.174 1134.13 703.11 1123.64 691.348C1113.14 679.586 1098.13 654.483 1112.46 638.419C1126.79 622.355 1149.14 639.127 1159.68 650.943C1170.22 662.759 1184.5 688.679 1170.9 703.927Z" fill="#D9DDE2"/>
<path d="M968.914 795.294C952.494 813.699 958.372 842.832 973.432 859.712C988.491 876.593 1014.53 883.236 1030.95 864.831C1047.37 846.426 1041.44 817.238 1026.38 800.358C1011.32 783.477 985.333 776.889 968.914 795.294ZM1028.86 862.49C1015.26 877.736 992.377 861.999 981.884 850.238C971.391 838.476 956.672 813.699 971.002 797.635C985.333 781.571 1007.39 798.016 1017.93 809.833C1028.47 821.649 1042.46 847.242 1028.86 862.49Z" fill="#D9DDE2"/>
<path d="M1090.34 661.865L1097.09 669.434L1078.73 680.107L1136.05 744.363L1128.28 753.076L1070.95 688.82L1061.48 709.349L1054.73 701.78L1090.34 661.865Z" fill="#D9DDE2"/>
<path d="M1027.37 732.44L1034.08 739.955L1015.76 750.682L1073.09 814.937L1065.36 823.596L1007.99 759.395L998.518 779.815L991.814 772.3L1027.37 732.44Z" fill="#D9DDE2"/>
<path d="M850.551 930.645L842.827 939.303L902.482 1006.17L910.206 997.514L850.551 930.645Z" fill="#D9DDE2"/>
<path d="M885.042 1028.01C880.67 1032.91 873.14 1037.1 866.825 1037.1L858.955 1028.28L859.149 1027.63C866.63 1028.82 877.318 1029.59 881.739 1024.63C885.868 1020 885.673 1014.56 880.087 1008.3C872.315 999.583 857.109 997.677 842.925 994.083C835.93 992.341 825.096 990.327 820.044 984.664C814.36 978.292 814.7 968.545 821.259 961.194C824.951 957.055 830.294 954.441 835.395 953.515L843.654 962.773L843.071 963.426C835.395 962.01 826.651 960.05 822.862 964.297C820.53 966.911 821.161 970.777 823.931 973.881C827.865 978.292 838.699 979.979 849.192 982.375C861.336 985.098 877.319 987.222 886.986 998.058C893.884 1005.79 894.369 1017.55 885.042 1028.01L885.042 1028.01Z" fill="#D9DDE2"/>
<path d="M1113.39 769.767L1121.5 760.671L1046.66 710.819L1038.94 719.477L1078.24 809.163L1086.21 800.233L1070.08 770.717L1087.06 751.68L1113.38 769.767L1113.39 769.767ZM1068.42 767.677L1043.21 721.546L1084.35 749.815L1068.42 767.676L1068.42 767.677Z" fill="#D9DDE2"/>
<path d="M979.773 919.531L955.727 892.577C968.941 877.765 969.766 861.484 958.739 849.123C947.712 836.762 933.429 837.743 920.119 852.663L912.347 861.375L972.002 928.244L979.774 919.532L979.773 919.531ZM922.013 854.786C922.499 854.241 923.033 853.86 923.471 853.37C929.98 846.073 942.222 848.687 951.014 858.543C959.807 868.399 961.361 880.379 954.464 888.111C954.026 888.601 953.589 889.2 953.152 889.69L922.013 854.785L922.013 854.786Z" fill="#D9DDE2"/>
<path d="M897.052 878.517L935.443 953.649L866.218 913.08L857.619 922.719L915.962 991.059L924.221 981.801L866.024 924.407L866.558 923.808L938.309 966.01L943.07 960.673L903.138 882.804L957.838 944.119L965.562 935.461L905.907 868.592L897.052 878.517Z" fill="#D9DDE2"/>
<path d="M1083.67 1014.96C1067.25 1033.37 1073.13 1062.5 1088.19 1079.38C1103.25 1096.26 1129.29 1102.9 1145.71 1084.5C1162.13 1066.09 1156.2 1036.91 1141.14 1020.03C1126.08 1003.14 1100.09 996.556 1083.67 1014.96ZM1143.91 1082.48C1130.31 1097.73 1107.14 1081.67 1096.64 1069.91C1086.15 1058.14 1071.14 1033.04 1085.47 1016.98C1099.8 1000.91 1122.15 1017.68 1132.69 1029.5C1143.23 1041.32 1157.51 1067.24 1143.91 1082.48Z" fill="#D9DDE2"/>
<path d="M1063.34 1040.42L1070.09 1047.99L1051.73 1058.67L1109.05 1122.92L1101.28 1131.63L1043.96 1067.38L1034.49 1087.91L1027.73 1080.34L1063.34 1040.42Z" fill="#D9DDE2"/>
<path d="M1086.39 1148.33L1094.51 1139.23L1019.67 1089.38L1011.95 1098.04L1051.25 1187.72L1059.21 1178.79L1043.09 1149.28L1060.07 1130.24L1086.39 1148.33L1086.39 1148.33ZM1041.43 1146.24L1016.22 1100.1L1057.36 1128.37L1041.43 1146.24L1041.43 1146.24Z" fill="#D9DDE2"/>
<path d="M452.181 756.72C435.762 775.125 441.64 804.258 456.699 821.139C471.758 838.019 497.797 844.663 514.217 826.258C530.636 807.852 524.709 778.665 509.65 761.784C494.591 744.904 468.601 738.315 452.181 756.72ZM512.419 824.243C498.817 839.49 475.645 823.426 465.152 811.664C454.658 799.902 439.648 774.799 453.979 758.735C468.31 742.671 490.656 759.442 501.197 771.259C511.739 783.075 526.022 808.995 512.419 824.243Z" fill="#D9DDE2"/>
<path d="M310.429 915.617C294.009 934.022 299.887 963.155 314.946 980.035C330.005 996.916 356.044 1003.56 372.464 985.154C388.883 966.749 382.956 937.561 367.897 920.681C352.838 903.8 326.848 897.212 310.429 915.617ZM370.374 982.812C356.773 998.059 333.891 982.322 323.399 970.56C312.906 958.799 298.186 934.022 312.517 917.958C326.848 901.894 348.903 918.339 359.445 930.155C369.986 941.972 383.977 967.565 370.374 982.812Z" fill="#D9DDE2"/>
<path d="M431.854 782.183L438.606 789.752L420.244 800.425L477.567 864.68L469.794 873.393L412.471 809.138L402.997 829.667L396.245 822.098L431.854 782.183Z" fill="#D9DDE2"/>
<path d="M368.888 852.762L375.592 860.277L357.278 871.004L414.601 935.259L406.877 943.917L349.505 879.716L340.032 900.137L333.328 892.622L368.888 852.762Z" fill="#D9DDE2"/>
<path d="M192.061 1050.97L184.337 1059.62L243.992 1126.49L251.716 1117.84L192.061 1050.97Z" fill="#D9DDE2"/>
<path d="M226.553 1148.33C222.181 1153.23 214.652 1157.42 208.337 1157.42L200.467 1148.6L200.661 1147.95C208.142 1149.15 218.829 1149.91 223.25 1144.95C227.38 1140.32 227.185 1134.88 221.599 1128.62C213.827 1119.9 198.621 1118 184.436 1114.4C177.441 1112.66 166.608 1110.65 161.556 1104.98C155.872 1098.61 156.212 1088.87 162.77 1081.52C166.462 1077.38 171.806 1074.76 176.907 1073.84L185.165 1083.09L184.583 1083.75C176.907 1082.33 168.163 1080.37 164.373 1084.62C162.041 1087.23 162.673 1091.1 165.442 1094.2C169.377 1098.61 180.211 1100.3 190.703 1102.7C202.848 1105.42 218.83 1107.54 228.498 1118.38C235.396 1126.11 235.881 1137.87 226.554 1148.33L226.553 1148.33Z" fill="#D9DDE2"/>
<path d="M454.897 890.09L463.011 880.994L388.175 831.142L380.451 839.801L419.751 929.486L427.717 920.556L411.591 891.041L428.575 872.003L454.896 890.09L454.897 890.09ZM409.931 888L384.726 841.869L425.865 870.139L409.931 887.999L409.931 888Z" fill="#D9DDE2"/>
<path d="M321.286 1039.85L297.24 1012.9C310.453 998.087 311.279 981.806 300.252 969.445C289.225 957.084 274.942 958.065 261.632 972.984L253.859 981.697L313.514 1048.57L321.287 1039.85L321.286 1039.85ZM263.526 975.107C264.011 974.563 264.546 974.182 264.983 973.692C271.493 966.395 283.735 969.009 292.527 978.865C301.32 988.721 302.874 1000.7 295.976 1008.43C295.539 1008.92 295.102 1009.52 294.664 1010.01L263.525 975.107L263.526 975.107Z" fill="#D9DDE2"/>
<path d="M238.563 998.839L276.953 1073.97L207.729 1033.4L199.13 1043.04L257.473 1111.38L265.732 1102.12L207.534 1044.73L208.069 1044.13L279.82 1086.33L284.58 1081L244.649 1003.13L299.348 1064.44L307.073 1055.78L247.418 988.913L238.563 998.839Z" fill="#D9DDE2"/>
<path d="M-40.5764 670.874C-56.9957 689.279 -51.118 718.412 -36.0587 735.292C-20.9994 752.173 5.0393 758.816 21.4587 740.411C37.8781 722.006 31.9514 692.818 16.8921 675.938C1.83286 659.057 -24.157 652.468 -40.5764 670.874ZM19.6613 738.396C6.05939 753.643 -17.1129 737.58 -27.6062 725.817C-38.0995 714.055 -53.1098 688.952 -38.779 672.888C-24.4481 656.824 -2.10197 673.596 8.43963 685.412C18.9812 697.229 33.2638 723.149 19.6613 738.396Z" fill="#D9DDE2"/>
<path d="M229.482 91.57C220.006 102.192 223.398 119.005 232.089 128.747C240.78 138.489 255.807 142.323 265.283 131.701C274.759 121.079 271.339 104.235 262.648 94.4925C253.957 84.7505 238.958 80.9481 229.482 91.57ZM264.246 130.538C256.396 139.338 243.023 130.067 236.967 123.279C230.911 116.491 222.248 102.004 230.519 92.7327C238.79 83.4619 251.686 93.141 257.77 99.9605C263.853 106.78 272.096 121.739 264.246 130.538Z" fill="#D9DDE2"/>
<path d="M147.669 183.278C138.193 193.9 141.585 210.713 150.276 220.455C158.967 230.197 173.995 234.031 183.471 223.409C192.947 212.787 189.526 195.943 180.835 186.201C172.144 176.458 157.145 172.656 147.669 183.278ZM182.265 222.058C174.415 230.857 161.21 221.775 155.154 214.987C149.099 208.199 140.604 193.9 148.874 184.629C157.145 175.358 169.873 184.849 175.957 191.669C182.041 198.488 190.115 213.258 182.265 222.058Z" fill="#D9DDE2"/>
<path d="M217.751 106.265L221.647 110.633L211.05 116.792L244.132 153.875L239.646 158.904L206.564 121.821L201.097 133.668L197.2 129.3L217.751 106.265Z" fill="#D9DDE2"/>
<path d="M181.408 147.003L185.277 151.34L174.707 157.531L207.79 194.614L203.332 199.611L170.222 162.559L164.755 174.344L160.886 170.007L181.408 147.003Z" fill="#D9DDE2"/>
<path d="M79.3581 261.391L74.9004 266.388L109.328 304.98L113.786 299.983L79.3581 261.391Z" fill="#D9DDE2"/>
<path d="M99.264 317.582C96.7408 320.41 92.3953 322.83 88.7508 322.83L84.2091 317.739L84.321 317.362C88.6386 318.053 94.8063 318.494 97.3578 315.634C99.7409 312.962 99.6286 309.819 96.4048 306.206C91.9192 301.178 83.1439 300.077 74.9576 298.003C70.9206 296.998 64.6685 295.835 61.7528 292.567C58.4725 288.89 58.6687 283.265 62.4537 279.022C64.5845 276.634 67.6682 275.125 70.6121 274.591L75.3783 279.933L75.042 280.31C70.6121 279.493 65.5657 278.362 63.3788 280.813C62.033 282.322 62.3976 284.553 63.9958 286.344C66.2666 288.89 72.5187 289.864 78.5743 291.246C85.5831 292.818 94.807 294.044 100.386 300.297C104.367 304.76 104.647 311.548 99.2644 317.582L99.264 317.582Z" fill="#D9DDE2"/>
<path d="M231.047 168.546L235.73 163.297L192.541 134.526L188.083 139.523L210.764 191.282L215.362 186.129L206.055 169.095L215.856 158.108L231.047 168.546L231.047 168.546ZM205.097 167.34L190.551 140.717L214.293 157.032L205.097 167.339L205.097 167.34Z" fill="#D9DDE2"/>
<path d="M153.936 254.977L140.058 239.421C147.684 230.873 148.16 221.476 141.796 214.343C135.432 207.209 127.19 207.775 119.508 216.385L115.022 221.414L149.45 260.005L153.936 254.977L153.936 254.977ZM120.601 217.611C120.881 217.297 121.19 217.077 121.442 216.794C125.199 212.583 132.264 214.091 137.338 219.779C142.413 225.467 143.31 232.381 139.329 236.844C139.077 237.126 138.824 237.472 138.572 237.755L120.601 217.61L120.601 217.611Z" fill="#D9DDE2"/>
<path d="M106.194 231.308L128.35 274.668L88.3992 251.255L83.4368 256.818L117.108 296.258L121.874 290.915L88.287 257.792L88.5954 257.446L130.004 281.802L132.752 278.722L109.706 233.782L141.275 269.168L145.732 264.171L111.304 225.58L106.194 231.308Z" fill="#D9DDE2"/>
<path d="M229.634 91.8986C220.158 102.521 223.55 119.334 232.241 129.076C240.932 138.818 255.96 142.652 265.435 132.03C274.911 121.408 271.491 104.563 262.8 94.8211C254.109 85.0791 239.11 81.2767 229.634 91.8986ZM264.398 130.867C256.548 139.666 243.175 130.396 237.119 123.608C231.063 116.819 222.401 102.332 230.671 93.0614C238.942 83.7905 251.838 93.4697 257.922 100.289C264.006 107.109 272.248 122.067 264.398 130.867Z" fill="#D9DDE2"/>
<path d="M147.819 183.607C138.343 194.229 141.735 211.042 150.426 220.784C159.117 230.526 174.144 234.36 183.62 223.738C193.096 213.116 189.676 196.271 180.985 186.529C172.294 176.787 157.294 172.985 147.819 183.607ZM182.414 222.386C174.564 231.186 161.359 222.104 155.304 215.316C149.248 208.528 140.753 194.229 149.024 184.958C157.294 175.687 170.023 185.178 176.107 191.997C182.19 198.817 190.265 213.587 182.414 222.386Z" fill="#D9DDE2"/>
<path d="M217.898 106.594L221.795 110.962L211.198 117.122L244.28 154.204L239.794 159.233L206.712 122.15L201.245 133.998L197.348 129.629L217.898 106.594Z" fill="#D9DDE2"/>
<path d="M181.558 147.333L185.427 151.67L174.858 157.861L207.94 194.944L203.482 199.94L170.372 162.889L164.905 174.674L161.036 170.337L181.558 147.333Z" fill="#D9DDE2"/>
<path d="M79.5075 261.721L75.0498 266.718L109.478 305.309L113.935 300.312L79.5075 261.721Z" fill="#D9DDE2"/>
<path d="M99.4135 317.911C96.8902 320.739 92.5448 323.159 88.9002 323.159L84.3585 318.068L84.4704 317.691C88.788 318.382 94.9557 318.822 97.5072 315.962C99.8903 313.291 99.7781 310.148 96.5542 306.534C92.0686 301.506 83.2933 300.406 75.107 298.332C71.07 297.326 64.8179 296.164 61.9022 292.896C58.6219 289.219 58.8182 283.594 62.6032 279.351C64.7339 276.962 67.8176 275.454 70.7615 274.919L75.5277 280.262L75.1914 280.639C70.7615 279.822 65.7151 278.691 63.5282 281.142C62.1825 282.65 62.547 284.881 64.1452 286.673C66.416 289.218 72.6682 290.192 78.7237 291.575C85.7325 293.147 94.9564 294.372 100.535 300.626C104.517 305.089 104.797 311.876 99.4138 317.91L99.4135 317.911Z" fill="#D9DDE2"/>
<path d="M231.195 168.874L235.878 163.625L192.688 134.854L188.231 139.851L210.911 191.611L215.509 186.457L206.202 169.423L216.004 158.436L231.194 168.874L231.195 168.874ZM205.244 167.668L190.698 141.045L214.44 157.36L205.244 167.668L205.244 167.668Z" fill="#D9DDE2"/>
<path d="M154.086 255.306L140.208 239.75C147.834 231.202 148.311 221.806 141.947 214.672C135.583 207.539 127.34 208.105 119.658 216.715L115.173 221.743L149.601 260.335L154.086 255.307L154.086 255.306ZM120.752 217.94C121.032 217.626 121.34 217.406 121.593 217.123C125.349 212.912 132.414 214.421 137.489 220.109C142.563 225.797 143.46 232.711 139.479 237.173C139.227 237.456 138.975 237.801 138.722 238.084L120.751 217.94L120.752 217.94Z" fill="#D9DDE2"/>
<path d="M106.344 231.636L128.499 274.996L88.5486 251.583L83.5862 257.146L117.257 296.586L122.023 291.244L88.4364 258.12L88.7448 257.774L130.154 282.13L132.901 279.05L109.856 234.11L141.424 269.496L145.882 264.5L111.454 225.908L106.344 231.636Z" fill="#D9DDE2"/>
<path d="M1474.05 90.1258C1463.15 102.341 1467.05 121.676 1477.05 132.88C1487.04 144.083 1504.32 148.492 1515.22 136.277C1526.12 124.062 1522.18 104.69 1512.19 93.4868C1502.19 82.2834 1484.94 77.9106 1474.05 90.1258ZM1514.03 134.94C1505 145.059 1489.62 134.398 1482.66 126.591C1475.69 118.785 1465.73 102.124 1475.24 91.463C1484.75 80.8015 1499.58 91.9326 1506.58 99.775C1513.57 107.617 1523.05 124.82 1514.03 134.94Z" fill="#D9DDE2"/>
<path d="M1379.96 195.59C1369.06 207.805 1372.96 227.141 1382.96 238.344C1392.95 249.547 1410.23 253.957 1421.13 241.741C1432.03 229.526 1428.09 210.154 1418.1 198.951C1408.11 187.748 1390.86 183.375 1379.96 195.59ZM1419.74 240.187C1410.72 250.306 1395.53 239.862 1388.57 232.056C1381.6 224.25 1371.83 207.805 1381.35 197.144C1390.86 186.482 1405.49 197.397 1412.49 205.239C1419.49 213.082 1428.77 230.067 1419.74 240.187Z" fill="#D9DDE2"/>
<path d="M1460.55 107.025L1465.04 112.048L1452.85 119.132L1490.89 161.778L1485.74 167.56L1447.69 124.915L1441.4 138.54L1436.92 133.516L1460.55 107.025Z" fill="#D9DDE2"/>
<path d="M1418.76 153.874L1423.21 158.862L1411.06 165.981L1449.1 208.627L1443.97 214.373L1405.9 171.764L1399.61 185.317L1395.16 180.329L1418.76 153.874Z" fill="#D9DDE2"/>
<path d="M1301.4 285.421L1296.27 291.167L1335.87 335.548L1340.99 329.801L1301.4 285.421Z" fill="#D9DDE2"/>
<path d="M1324.29 350.04C1321.39 353.293 1316.39 356.075 1312.2 356.075L1306.98 350.221L1307.11 349.787C1312.07 350.582 1319.17 351.088 1322.1 347.799C1324.84 344.727 1324.71 341.113 1321.01 336.957C1315.85 331.175 1305.76 329.909 1296.34 327.524C1291.7 326.368 1284.51 325.031 1281.16 321.273C1277.38 317.044 1277.61 310.575 1281.96 305.696C1284.41 302.949 1287.96 301.214 1291.34 300.6L1296.82 306.744L1296.44 307.177C1291.34 306.238 1285.54 304.937 1283.03 307.756C1281.48 309.49 1281.9 312.056 1283.73 314.116C1286.35 317.044 1293.54 318.164 1300.5 319.754C1308.56 321.561 1319.17 322.971 1325.58 330.162C1330.16 335.295 1330.48 343.101 1324.29 350.039L1324.29 350.04Z" fill="#D9DDE2"/>
<path d="M1475.84 178.648L1481.23 172.612L1431.56 139.526L1426.43 145.272L1452.52 204.795L1457.8 198.868L1447.1 179.279L1458.37 166.644L1475.84 178.649L1475.84 178.648ZM1446 177.261L1429.27 146.645L1456.58 165.407L1446 177.261L1446 177.261Z" fill="#D9DDE2"/>
<path d="M1387.17 278.044L1371.21 260.155C1379.98 250.325 1380.52 239.519 1373.21 231.315C1365.89 223.112 1356.41 223.762 1347.57 233.664L1342.42 239.447L1382.01 283.827L1387.17 278.045L1387.17 278.044ZM1348.83 235.074C1349.15 234.712 1349.51 234.459 1349.8 234.134C1354.12 229.291 1362.24 231.026 1368.08 237.567C1373.91 244.108 1374.95 252.06 1370.37 257.191C1370.08 257.517 1369.79 257.914 1369.5 258.239L1348.83 235.073L1348.83 235.074Z" fill="#D9DDE2"/>
<path d="M1332.26 250.825L1357.74 300.689L1311.8 273.764L1306.09 280.161L1344.81 325.518L1350.3 319.374L1311.67 281.281L1312.02 280.884L1359.65 308.893L1362.8 305.351L1336.3 253.67L1372.61 294.364L1377.73 288.618L1338.14 244.238L1332.26 250.825Z" fill="#D9DDE2"/>
<path d="M1380.73 45.0488C1371.09 55.8534 1374.54 72.9558 1383.38 82.8654C1392.22 92.775 1407.51 96.6751 1417.15 85.8704C1426.79 75.0658 1423.31 57.9312 1414.47 48.0216C1405.63 38.112 1390.37 34.2442 1380.73 45.0488ZM1416.09 84.6877C1408.11 93.6383 1394.5 84.2084 1388.34 77.3033C1382.18 70.3983 1373.37 55.6619 1381.78 46.2316C1390.2 36.8013 1403.32 46.6469 1409.5 53.5837C1415.69 60.5205 1424.08 75.7367 1416.09 84.6877Z" fill="#D9DDE2"/>
<path d="M1297.51 138.335C1287.87 149.14 1291.32 166.242 1300.16 176.152C1309 186.061 1324.29 189.961 1333.93 179.157C1343.56 168.352 1340.09 151.217 1331.24 141.308C1322.4 131.398 1307.15 127.53 1297.51 138.335ZM1332.7 177.782C1324.71 186.732 1311.28 177.494 1305.12 170.589C1298.96 163.685 1290.32 149.14 1298.73 139.709C1307.15 130.279 1320.09 139.933 1326.28 146.87C1332.47 153.807 1340.68 168.831 1332.7 177.782Z" fill="#D9DDE2"/>
<path d="M1368.8 59.9973L1372.76 64.4406L1361.98 70.7061L1395.63 108.427L1391.07 113.542L1357.42 75.8211L1351.86 87.8725L1347.89 83.4292L1368.8 59.9973Z" fill="#D9DDE2"/>
<path d="M1331.83 101.436L1335.76 105.848L1325.01 112.145L1358.66 149.866L1354.13 154.949L1320.45 117.26L1314.89 129.247L1310.95 124.836L1331.83 101.436Z" fill="#D9DDE2"/>
<path d="M1228.02 217.792L1223.49 222.875L1258.51 262.13L1263.04 257.048L1228.02 217.792Z" fill="#D9DDE2"/>
<path d="M1248.27 274.949C1245.7 277.826 1241.28 280.287 1237.57 280.287L1232.95 275.109L1233.07 274.725C1237.46 275.428 1243.73 275.876 1246.33 272.967C1248.75 270.25 1248.64 267.053 1245.36 263.377C1240.8 258.262 1231.87 257.143 1223.54 255.033C1219.44 254.01 1213.08 252.828 1210.11 249.503C1206.77 245.763 1206.97 240.041 1210.82 235.726C1212.99 233.296 1216.13 231.762 1219.12 231.218L1223.97 236.652L1223.63 237.036C1219.12 236.205 1213.99 235.054 1211.77 237.547C1210.4 239.082 1210.77 241.351 1212.39 243.174C1214.7 245.763 1221.06 246.754 1227.22 248.16C1234.35 249.759 1243.73 251.005 1249.41 257.367C1253.46 261.906 1253.74 268.811 1248.27 274.948L1248.27 274.949Z" fill="#D9DDE2"/>
<path d="M1382.32 123.349L1387.08 118.009L1343.15 88.7441L1338.62 93.8269L1361.69 146.477L1366.36 141.234L1356.9 123.907L1366.87 112.731L1382.32 123.349L1382.32 123.349ZM1355.92 122.122L1341.13 95.041L1365.28 111.637L1355.92 122.122L1355.92 122.122Z" fill="#D9DDE2"/>
<path d="M1303.88 211.267L1289.77 195.443C1297.52 186.748 1298.01 177.19 1291.53 169.934C1285.06 162.678 1276.68 163.253 1268.86 172.012L1264.3 177.126L1299.32 216.382L1303.88 211.267L1303.88 211.267ZM1269.97 173.258C1270.26 172.939 1270.57 172.715 1270.83 172.427C1274.65 168.144 1281.84 169.678 1287 175.464C1292.16 181.25 1293.07 188.283 1289.02 192.822C1288.77 193.11 1288.51 193.461 1288.25 193.749L1269.97 173.258L1269.97 173.258Z" fill="#D9DDE2"/>
<path d="M1255.32 187.191L1277.86 231.297L1237.22 207.481L1232.17 213.14L1266.42 253.258L1271.27 247.824L1237.11 214.131L1237.42 213.779L1279.54 238.553L1282.33 235.421L1258.89 189.708L1291 225.703L1295.54 220.62L1260.52 181.364L1255.32 187.191Z" fill="#D9DDE2"/>
<path d="M1028.73 938.55C1020.03 948.297 1023.14 963.725 1031.12 972.664C1039.09 981.603 1052.88 985.122 1061.58 975.375C1070.27 965.628 1067.13 950.171 1059.16 941.232C1051.18 932.292 1037.42 928.803 1028.73 938.55ZM1060.63 974.308C1053.42 982.382 1041.15 973.875 1035.59 967.647C1030.04 961.418 1022.09 948.124 1029.68 939.617C1037.27 931.11 1049.1 939.992 1054.68 946.249C1060.27 952.507 1067.83 966.233 1060.63 974.308Z" fill="#D9DDE2"/>
<path d="M953.651 1022.7C944.956 1032.45 948.069 1047.88 956.044 1056.82C964.019 1065.76 977.808 1069.27 986.503 1059.53C995.199 1049.78 992.06 1034.32 984.085 1025.38C976.11 1016.45 962.347 1012.96 953.651 1022.7ZM985.397 1058.29C978.194 1066.36 966.077 1058.03 960.52 1051.8C954.963 1045.57 947.168 1032.45 954.757 1023.94C962.347 1015.44 974.026 1024.14 979.609 1030.4C985.191 1036.66 992.6 1050.21 985.397 1058.29Z" fill="#D9DDE2"/>
<path d="M1017.96 952.034L1021.54 956.042L1011.81 961.695L1042.17 995.722L1038.05 1000.34L1007.7 966.309L1002.68 977.18L999.103 973.172L1017.96 952.034Z" fill="#D9DDE2"/>
<path d="M984.61 989.416L988.16 993.396L978.461 999.077L1008.82 1033.1L1004.73 1037.69L974.345 1003.69L969.329 1014.5L965.778 1010.52L984.61 989.416Z" fill="#D9DDE2"/>
<path d="M1030.16 1009.18L1034.45 1004.37L994.823 977.967L990.732 982.552L1011.54 1030.05L1015.76 1025.32L1007.22 1009.69L1016.22 999.605L1030.16 1009.18L1030.16 1009.18ZM1006.34 1008.08L992.997 983.647L1014.78 998.618L1006.34 1008.08L1006.34 1008.08Z" fill="#D9DDE2"/>
<path d="M959.401 1088.49L946.666 1074.22C953.664 1066.38 954.101 1057.75 948.261 1051.21C942.422 1044.66 934.858 1045.18 927.809 1053.08L923.693 1057.7L955.285 1093.11L959.401 1088.49L959.401 1088.49ZM928.812 1054.21C929.07 1053.92 929.353 1053.72 929.584 1053.46C933.031 1049.59 939.514 1050.98 944.171 1056.2C948.827 1061.42 949.65 1067.76 945.997 1071.86C945.766 1072.11 945.534 1072.43 945.303 1072.69L928.812 1054.21L928.812 1054.21Z" fill="#D9DDE2"/>
<path d="M915.595 1066.78L935.925 1106.56L899.266 1085.08L894.712 1090.18L925.609 1126.37L929.983 1121.47L899.163 1091.08L899.446 1090.76L937.443 1113.11L939.964 1110.28L918.817 1069.05L947.785 1101.52L951.875 1096.93L920.284 1061.52L915.595 1066.78Z" fill="#D9DDE2"/>
<path d="M320.169 116.452C309.22 128.725 313.14 148.152 323.182 159.408C333.224 170.665 350.588 175.095 361.537 162.822C372.486 150.549 368.534 131.085 358.492 119.829C348.449 108.572 331.118 104.179 320.169 116.452ZM360.338 161.478C351.268 171.646 335.816 160.934 328.818 153.09C321.821 145.247 311.812 128.507 321.368 117.795C330.924 107.083 345.826 118.267 352.855 126.147C359.885 134.026 369.409 151.311 360.338 161.478Z" fill="#D9DDE2"/>
<path d="M225.636 222.416C214.687 234.689 218.607 254.116 228.649 265.373C238.691 276.629 256.054 281.059 267.003 268.786C277.953 256.513 274 237.05 263.958 225.793C253.916 214.537 236.585 210.143 225.636 222.416ZM265.61 267.225C256.54 277.392 241.282 266.898 234.285 259.055C227.288 251.212 217.473 234.689 227.029 223.977C236.585 213.265 251.292 224.231 258.322 232.111C265.351 239.991 274.681 257.057 265.61 267.225Z" fill="#D9DDE2"/>
<path d="M306.611 133.431L311.114 138.478L298.869 145.595L337.094 188.443L331.911 194.253L293.686 151.405L287.369 165.095L282.866 160.047L306.611 133.431Z" fill="#D9DDE2"/>
<path d="M264.62 180.503L269.09 185.514L256.878 192.668L295.103 235.516L289.952 241.289L251.695 198.477L245.378 212.095L240.907 207.083L264.62 180.503Z" fill="#D9DDE2"/>
<path d="M146.703 312.673L141.553 318.446L181.333 363.037L186.483 357.264L146.703 312.673Z" fill="#D9DDE2"/>
<path d="M169.704 377.599C166.788 380.867 161.767 383.663 157.556 383.663L152.309 377.78L152.438 377.345C157.427 378.143 164.553 378.652 167.501 375.347C170.255 372.261 170.125 368.629 166.4 364.454C161.217 358.644 151.078 357.373 141.619 354.977C136.954 353.815 129.73 352.471 126.361 348.695C122.571 344.446 122.798 337.947 127.171 333.045C129.633 330.285 133.196 328.542 136.598 327.924L142.105 334.097L141.716 334.533C136.598 333.589 130.767 332.282 128.24 335.114C126.685 336.857 127.106 339.435 128.953 341.505C131.577 344.446 138.801 345.571 145.798 347.169C153.896 348.985 164.554 350.401 171 357.627C175.601 362.784 175.924 370.627 169.704 377.598L169.704 377.599Z" fill="#D9DDE2"/>
<path d="M321.975 205.394L327.386 199.329L277.482 166.086L272.331 171.859L298.538 231.665L303.85 225.71L293.097 206.028L304.422 193.333L321.974 205.394L321.975 205.394ZM291.99 204L275.182 173.239L302.615 192.09L291.99 204L291.99 204Z" fill="#D9DDE2"/>
<path d="M232.877 305.261L216.842 287.287C225.653 277.41 226.204 266.553 218.85 258.31C211.497 250.067 201.973 250.721 193.097 260.67L187.914 266.48L227.694 311.071L232.877 305.261L232.877 305.261ZM194.36 262.086C194.684 261.723 195.04 261.469 195.332 261.142C199.673 256.276 207.836 258.019 213.699 264.592C219.562 271.164 220.599 279.153 215.999 284.309C215.708 284.636 215.416 285.035 215.124 285.362L194.36 262.086L194.36 262.086Z" fill="#D9DDE2"/>
<path d="M177.713 277.913L203.313 328.014L157.152 300.961L151.418 307.389L190.323 352.96L195.83 346.787L157.022 308.514L157.378 308.115L205.225 336.256L208.399 332.698L181.771 280.772L218.247 321.659L223.398 315.885L183.618 271.294L177.713 277.913Z" fill="#D9DDE2"/>
<path d="M-70.0851 1048.74C-86.5045 1067.14 -80.6267 1096.28 -65.5675 1113.16C-50.5082 1130.04 -24.4695 1136.68 -8.0501 1118.28C8.36929 1099.87 2.44259 1070.68 -12.6167 1053.8C-27.6759 1036.92 -53.6658 1030.33 -70.0851 1048.74ZM-9.8475 1116.26C-23.4494 1131.51 -46.6217 1115.44 -57.115 1103.68C-67.6083 1091.92 -82.6186 1066.82 -68.2877 1050.75C-53.9569 1034.69 -31.6108 1051.46 -21.0692 1063.28C-10.5276 1075.09 3.75499 1101.01 -9.8475 1116.26Z" fill="#D9DDE2"/>
<path d="M516.44 875.001C488.696 906.1 498.628 955.327 524.074 983.85C549.519 1012.37 593.518 1023.6 621.262 992.499C649.006 961.4 638.991 912.081 613.545 883.558C588.1 855.034 544.184 843.901 516.44 875.001ZM618.225 989.095C595.241 1014.86 556.087 987.715 538.356 967.84C520.625 947.965 495.262 905.549 519.477 878.405C543.692 851.262 581.451 879.601 599.263 899.567C617.075 919.534 641.209 963.331 618.225 989.095Z" fill="#D9DDE2"/>
<path d="M482.07 918.044L493.479 930.833L462.452 948.868L559.312 1057.44L546.177 1072.16L449.318 963.59L433.311 998.278L421.901 985.489L482.07 918.044Z" fill="#D9DDE2"/>
<path d="M375.685 1037.29L387.013 1049.99L356.068 1068.12L452.927 1176.69L439.876 1191.32L342.934 1082.84L326.927 1117.34L315.6 1104.65L375.685 1037.29Z" fill="#D9DDE2"/>
<path d="M521.016 1100.37L534.727 1085L408.275 1000.76L395.223 1015.39L461.629 1166.94L475.091 1151.85L447.841 1101.97L476.539 1069.81L521.015 1100.37L521.016 1100.37ZM445.036 1096.84L402.447 1018.89L471.961 1066.65L445.037 1096.83L445.036 1096.84Z" fill="#D9DDE2"/>
<path d="M1667.69 844.041C1639.95 875.141 1649.88 924.367 1675.33 952.89C1700.77 981.414 1744.77 992.639 1772.52 961.54C1800.26 930.44 1790.25 881.121 1764.8 852.598C1739.35 824.075 1695.44 812.942 1667.69 844.041ZM1769.48 958.135C1746.5 983.898 1707.34 956.756 1689.61 936.881C1671.88 917.006 1646.52 874.589 1670.73 847.446C1694.95 820.302 1732.7 848.641 1750.52 868.608C1768.33 888.574 1792.46 932.371 1769.48 958.135Z" fill="#D9DDE2"/>
<path d="M1428.16 1112.54C1400.42 1143.64 1410.35 1192.87 1435.8 1221.39C1461.24 1249.91 1505.24 1261.14 1532.98 1230.04C1560.73 1198.94 1550.71 1149.62 1525.27 1121.1C1499.82 1092.57 1455.91 1081.44 1428.16 1112.54ZM1529.45 1226.08C1506.47 1251.85 1467.81 1225.25 1450.08 1205.38C1432.35 1185.51 1407.48 1143.64 1431.69 1116.5C1455.91 1089.35 1493.17 1117.14 1510.99 1137.11C1528.8 1157.07 1552.44 1200.32 1529.45 1226.08Z" fill="#D9DDE2"/>
<path d="M1633.32 887.085L1644.73 899.874L1613.71 917.909L1710.57 1026.48L1697.43 1041.2L1600.57 932.631L1584.56 967.319L1573.16 954.53L1633.32 887.085Z" fill="#D9DDE2"/>
<path d="M1526.94 1006.33L1538.27 1019.03L1507.32 1037.16L1604.18 1145.73L1591.13 1160.36L1494.19 1051.88L1478.18 1086.38L1466.85 1073.69L1526.94 1006.33Z" fill="#D9DDE2"/>
<path d="M1672.27 1069.41L1685.98 1054.04L1559.53 969.803L1546.48 984.433L1612.88 1135.98L1626.35 1120.89L1599.1 1071.01L1627.79 1038.85L1672.27 1069.41L1672.27 1069.41ZM1596.29 1065.88L1553.7 987.927L1623.22 1035.69L1596.29 1065.87L1596.29 1065.88Z" fill="#D9DDE2"/>
<path d="M1160.49 323.346C1132.75 354.445 1142.68 403.671 1168.13 432.195C1193.57 460.718 1237.57 471.943 1265.31 440.844C1293.06 409.745 1283.04 360.426 1257.6 331.902C1232.15 303.379 1188.24 292.246 1160.49 323.346ZM1262.28 437.44C1239.29 463.202 1200.14 436.06 1182.41 416.185C1164.68 396.31 1139.31 353.894 1163.53 326.75C1187.74 299.606 1225.5 327.945 1243.31 347.912C1261.13 367.878 1285.26 411.676 1262.28 437.44Z" fill="#D9DDE2"/>
<path d="M920.959 591.845C893.214 622.944 903.146 672.171 928.592 700.694C954.038 729.217 998.036 740.443 1025.78 709.343C1053.52 678.244 1043.51 628.925 1018.06 600.402C992.618 571.879 948.703 560.746 920.959 591.845ZM1022.25 705.387C999.267 731.149 960.604 704.558 942.874 684.684C925.145 664.811 900.272 622.944 924.488 595.801C948.703 568.657 985.969 596.445 1003.78 616.411C1021.59 636.378 1045.23 679.623 1022.25 705.387Z" fill="#D9DDE2"/>
<path d="M1126.12 366.388L1137.53 379.177L1106.5 397.212L1203.36 505.785L1190.23 520.508L1093.37 411.934L1077.36 446.622L1065.95 433.833L1126.12 366.388Z" fill="#D9DDE2"/>
<path d="M1019.74 485.638L1031.07 498.336L1000.12 516.462L1096.98 625.035L1083.93 639.665L986.987 531.183L970.98 565.688L959.652 552.99L1019.74 485.638Z" fill="#D9DDE2"/>
<path d="M720.952 820.547L707.9 835.177L808.7 948.167L821.752 933.537L720.952 820.547Z" fill="#D9DDE2"/>
<path d="M779.233 985.063C771.845 993.344 759.122 1000.43 748.452 1000.43L735.154 985.522L735.482 984.419C748.123 986.442 766.181 987.731 773.651 979.358C780.629 971.537 780.3 962.335 770.861 951.754C757.728 937.033 732.035 933.811 708.067 927.739C696.247 924.795 677.942 921.392 669.405 911.822C659.801 901.057 660.376 884.587 671.458 872.165C677.696 865.172 686.725 860.755 695.344 859.191L709.299 874.833L708.314 875.937C695.344 873.545 680.569 870.232 674.166 877.409C670.226 881.826 671.293 888.358 675.972 893.603C682.621 901.056 700.926 903.907 718.656 907.956C739.177 912.557 766.183 916.145 782.518 934.455C794.174 947.522 794.994 967.395 779.234 985.061L779.233 985.063Z" fill="#D9DDE2"/>
<path d="M1165.07 548.71L1178.78 533.342L1052.33 449.106L1039.27 463.736L1105.68 615.28L1119.14 600.19L1091.89 550.317L1120.59 518.149L1165.07 548.712L1165.07 548.71ZM1089.09 545.179L1046.5 467.231L1116.01 514.999L1089.09 545.178L1089.09 545.179Z" fill="#D9DDE2"/>
<path d="M939.305 801.768L898.674 756.223C921.001 731.196 922.396 703.685 903.763 682.799C885.13 661.913 860.997 663.569 838.506 688.779L825.373 703.501L926.173 816.491L939.306 801.77L939.305 801.768ZM841.707 692.367C842.527 691.447 843.43 690.803 844.169 689.975C855.168 677.645 875.854 682.062 890.71 698.716C905.567 715.369 908.194 735.613 896.539 748.678C895.8 749.506 895.061 750.517 894.322 751.345L841.706 692.366L841.707 692.367Z" fill="#D9DDE2"/>
<path d="M799.53 732.467L864.398 859.418L747.428 790.869L732.899 807.155L831.482 922.63L845.437 906.988L747.1 810.007L748.003 808.995L869.242 880.304L877.286 871.288L809.812 739.711L902.24 843.316L915.291 828.686L814.492 715.696L799.53 732.467Z" fill="#D9DDE2"/>
<path d="M1169.91 1119.87C1142.16 1150.97 1152.09 1200.19 1177.54 1228.72C1202.99 1257.24 1246.98 1268.47 1274.73 1237.37C1302.47 1206.27 1292.46 1156.95 1267.01 1128.42C1241.57 1099.9 1197.65 1088.77 1169.91 1119.87ZM1271.69 1233.96C1248.71 1259.72 1209.55 1232.58 1191.82 1212.71C1174.09 1192.83 1148.73 1150.42 1172.94 1123.27C1197.16 1096.13 1234.92 1124.47 1252.73 1144.43C1270.54 1164.4 1294.67 1208.2 1271.69 1233.96Z" fill="#D9DDE2"/>
</g>
</svg>
