<svg width="250" height="48" viewBox="0 0 250 48" fill="none" xmlns="http://www.w3.org/2000/svg">
<path d="M229.768 0C217.22 0 209.535 12.1766 209.535 23.685C209.535 35.1933 217.22 47.4073 229.768 47.4073C242.315 47.4073 250 35.1933 250 23.685C250 12.1766 242.315 0 229.768 0ZM229.768 46.0337C219.373 46.0337 215.995 31.7039 215.995 23.685C215.995 15.666 218.816 1.37358 229.768 1.37358C240.719 1.37358 243.541 15.629 243.541 23.685C243.541 31.7409 240.163 46.0337 229.768 46.0337Z" fill="#560002"/>
<path d="M121.44 0C108.892 0 101.207 12.1766 101.207 23.685C101.207 35.1933 108.892 47.4073 121.44 47.4073C133.987 47.4073 141.672 35.1933 141.672 23.685C141.672 12.1766 133.987 0 121.44 0ZM121.44 45.8108C111.045 45.8108 107.666 31.7035 107.666 23.685C107.666 15.6664 110.488 1.59605 121.44 1.59605C132.391 1.59605 135.213 15.629 135.213 23.685C135.213 31.7409 131.835 45.8108 121.44 45.8108Z" fill="#560002"/>
<path d="M213.322 0.909668V6.06981L202.667 2.69172V46.498H196.727V2.69172L186.109 6.06981V0.909668H213.322Z" fill="#560002"/>
<path d="M165.209 0.909668V6.03288L154.554 2.69172V46.498H148.652L148.615 2.69172L138.034 6.03288V0.909668H165.209Z" fill="#560002"/>
<path d="M30.0698 0.909668H24.167V46.498H30.0698V0.909668Z" fill="#560002"/>
<path d="M10.0604 47.2774C6.71927 47.2774 2.41299 45.8295 0 43.4165V37.4025L0.29678 37.2539C2.74715 40.5207 6.57065 44.8644 9.9492 44.8644C13.1048 44.8644 14.8869 42.9337 14.8869 38.6648C14.8869 32.7251 9.72672 26.2652 5.53169 19.6203C3.45286 16.3534 0 11.5275 0 7.66658C0 3.32292 3.45241 0.130371 8.46439 0.130371C11.2858 0.130371 14.2185 1.28102 16.4834 2.91445V9.2257H16.038C13.5876 5.81022 10.9148 1.80073 8.01899 1.80073C6.23694 1.80073 5.1606 3.35985 5.1606 5.47606C5.1606 8.48306 8.7247 13.1978 11.9172 18.0238C15.6295 23.5924 21.0126 30.4234 21.0126 37.8109C21.0126 43.0828 17.1886 47.2774 10.0609 47.2774H10.0604Z" fill="#560002"/>
<path d="M185.347 46.498H191.548L179.946 0.909668H174.043L158.488 46.498H164.577L168.476 30.2749H181.455L185.347 46.498H185.347ZM168.878 28.6041L174.972 3.24835L181.055 28.6041H168.878H168.878Z" fill="#560002"/>
<path d="M83.2385 46.498V28.1218C93.3363 28.1218 99.2017 22.8874 99.2017 14.4604C99.2017 6.03337 93.4102 0.910156 83.2385 0.910156H77.2988V46.4985H83.2385V46.498ZM83.2385 2.35759C83.6096 2.35759 83.9438 2.43189 84.2779 2.43189C89.2525 2.43189 93.0391 8.00051 93.0391 14.7198C93.0391 21.439 89.5493 26.1169 84.2779 26.1169C83.9438 26.1169 83.5727 26.1538 83.2385 26.1538V2.35713V2.35759Z" fill="#560002"/>
<path d="M65.6109 0.909668L54.6693 41.1892L42.0472 0.909668H35.4761L34.4736 46.498H40.7849L38.112 4.69623H38.5205L51.551 46.498H55.189L66.4748 4.69623V46.498H72.3776V0.909668H65.6109Z" fill="#560002"/>
</svg>
