<svg width="1440" height="232" viewBox="0 0 1440 232" fill="none" xmlns="http://www.w3.org/2000/svg">
<path d="M1341.55 0.248535C1280.49 0.248535 1243.1 59.5028 1243.1 115.5C1243.1 171.497 1280.49 230.94 1341.55 230.94C1402.6 230.94 1440 171.506 1440 115.5C1440 59.4943 1402.6 0.248535 1341.55 0.248535ZM1341.55 224.254C1290.97 224.254 1274.53 154.526 1274.53 115.5C1274.53 76.4743 1288.26 6.92568 1341.55 6.92568C1394.84 6.92568 1408.57 76.2943 1408.57 115.5C1408.57 154.706 1392.13 224.254 1341.55 224.254Z" fill="#FFFCF4"/>
<path d="M814.406 0.248535C753.343 0.248535 715.954 59.5028 715.954 115.5C715.954 171.497 753.351 230.94 814.406 230.94C875.46 230.94 912.857 171.506 912.857 115.5C912.857 59.4943 875.468 0.248535 814.406 0.248535ZM814.406 223.174C763.826 223.174 747.386 154.526 747.386 115.509C747.386 76.4914 761.117 8.02282 814.406 8.02282C867.694 8.02282 881.425 76.3114 881.425 115.509C881.425 154.706 864.986 223.174 814.406 223.174Z" fill="#FFFCF4"/>
<path d="M1261.52 4.67999V29.7857L1209.67 13.3457V226.517H1180.77V13.3457L1129.1 29.7857V4.67999H1261.52Z" fill="#FFFCF4"/>
<path d="M1027.39 4.67999V29.6057L975.549 13.3457V226.517H946.826L946.637 13.3457L895.157 29.6057V4.67999H1027.39Z" fill="#FFFCF4"/>
<path d="M1125.39 226.517H1155.57L1099.11 4.67999H1070.39L994.697 226.517H1024.32L1043.3 147.574H1106.45L1125.39 226.517H1125.39ZM1045.25 139.44L1074.91 16.0543L1104.51 139.44H1045.25Z" fill="#FFFCF4"/>
<path d="M556.397 4.67999V226.517H585.12L569.872 13.44H666.489V226.517H695.212V4.67999H556.397Z" fill="#FFFCF4"/>
<path d="M296.16 4.67999L202.594 208.089H200.914L213.42 4.67999H184.697V226.517H203.932L298.114 23.1257V226.517H326.837V4.67999H296.16Z" fill="#FFFCF4"/>
<path d="M97.7057 222.934C47.4771 222.934 30.96 154.131 30.96 115.594C30.96 77.0571 44.7257 8.25429 98.3914 8.25429C130.731 8.25429 147.249 47.4771 158.94 70.8686H162.377V24.0857C150 9.63429 121.791 0 97.02 0C36.4714 1.38 0 59.8629 0 115.594C0 171.326 36.4714 231.189 97.7057 231.189C127.98 231.189 151.371 218.803 166.509 204.351V157.56H163.071C151.371 180.951 136.929 222.926 97.7057 222.926V222.934Z" fill="#FFFCF4"/>
<path d="M499.003 4.67999L445.758 200.683L384.335 4.67999H352.363L347.486 226.517H378.189L365.186 23.1H367.175L430.586 226.517H448.286L503.203 23.1V226.517H531.926V4.67999H499.003Z" fill="#FFFCF4"/>
</svg>
