<svg width="258" height="82" viewBox="0 0 258 82" fill="none" xmlns="http://www.w3.org/2000/svg">
<path d="M236.302 16.0695C223.398 16.0695 215.494 28.5924 215.494 40.428C215.494 52.2636 223.398 64.825 236.302 64.825C249.207 64.825 257.11 52.2636 257.11 40.428C257.11 28.5924 249.207 16.0695 236.302 16.0695ZM236.302 63.4124C225.612 63.4124 222.137 48.6751 222.137 40.428C222.137 32.181 225.039 17.4821 236.302 17.4821C247.565 17.4821 250.467 32.143 250.467 40.428C250.467 48.7131 246.993 63.4124 236.302 63.4124Z" fill="white"/>
<path d="M124.893 16.0695C111.988 16.0695 104.085 28.5924 104.085 40.428C104.085 52.2636 111.988 64.825 124.893 64.825C137.798 64.825 145.701 52.2636 145.701 40.428C145.701 28.5924 137.798 16.0695 124.893 16.0695ZM124.893 63.1831C114.203 63.1831 110.728 48.6746 110.728 40.428C110.728 32.1815 113.63 17.7109 124.893 17.7109C136.156 17.7109 139.058 32.143 139.058 40.428C139.058 48.7131 135.584 63.1831 124.893 63.1831Z" fill="white"/>
<path d="M219.388 17.0048V22.3117L208.431 18.8375V63.8896H202.322V18.8375L191.402 22.3117V17.0048H219.388Z" fill="white"/>
<path d="M169.907 17.0048V22.2737L158.949 18.8375V63.8896H152.878L152.84 18.8375L141.959 22.2737V17.0048H169.907Z" fill="white"/>
<path d="M30.9251 17.0048H24.8545V63.8896H30.9251V17.0048Z" fill="white"/>
<path d="M10.3466 64.6916C6.91036 64.6916 2.48162 63.2026 0 60.721V54.5359L0.305221 54.3831C2.82528 57.7428 6.75751 62.21 10.2322 62.21C13.4775 62.21 15.3103 60.2245 15.3103 55.8342C15.3103 49.7255 10.0034 43.0819 5.68901 36.248C3.55106 32.8882 0 27.925 0 23.9543C0 19.4871 3.55059 16.2038 8.70511 16.2038C11.6068 16.2038 14.6229 17.3872 16.9522 19.0671V25.5578H16.4941C13.974 22.0452 11.2252 17.9217 8.24705 17.9217C6.41432 17.9217 5.30736 19.5251 5.30736 21.7015C5.30736 24.794 8.97283 29.6429 12.2562 34.6061C16.074 40.3331 21.6102 47.3583 21.6102 54.956C21.6102 60.3778 17.6775 64.6916 10.347 64.6916H10.3466Z" fill="white"/>
<path d="M190.619 63.8896H196.996L185.064 17.0048H178.994L162.996 63.8896H169.258L173.268 47.2052H186.616L190.618 63.8896H190.619ZM173.681 45.4868L179.949 19.41L186.205 45.4868H173.682H173.681Z" fill="white"/>
<path d="M85.6057 63.8898V44.991C95.9907 44.991 102.023 39.6076 102.023 30.941C102.023 22.2743 96.0666 17.0054 85.6057 17.0054H79.4971V63.8902H85.6057V63.8898ZM85.6057 18.494C85.9873 18.494 86.331 18.5704 86.6747 18.5704C91.7908 18.5704 95.685 24.2974 95.685 31.2077C95.685 38.1181 92.096 42.929 86.6747 42.929C86.331 42.929 85.9494 42.9669 85.6057 42.9669V18.4935V18.494Z" fill="white"/>
<path d="M67.4769 17.0048L56.2241 58.4299L43.2431 17.0048H36.4851L35.4541 63.8896H41.9448L39.196 20.899H39.6161L53.0172 63.8896H56.7586L68.3654 20.899V63.8896H74.436V17.0048H67.4769Z" fill="white"/>
<path d="M40.0886 5.96619C39.7183 6.32615 39.2144 6.61411 38.3505 6.61411C37.0958 6.61411 36.2936 5.99705 36.2936 4.48524V2.0067H37.6717V4.14585C37.6717 4.91718 38.0111 5.236 38.7619 5.236C39.3584 5.236 39.7595 5.09202 40.0886 4.85548V2.0067H41.4667V9.00009H40.0886V5.96619ZM42.907 9.00009V2.0067H44.2851V6.56269L46.9693 2.0067H48.3474V9.00009H46.9693V4.34126L44.2851 9.00009H42.907ZM49.7984 9.00009V2.0067H55.1566V9.00009H53.7785V3.47737H51.1765V9.00009H49.7984ZM59.448 9.13379C57.3808 9.13379 56.3113 7.50885 56.3113 5.5034C56.3113 3.49794 57.3808 1.873 59.448 1.873C61.0112 1.873 62.05 2.81917 62.2865 4.40296H60.9598C60.7953 3.76533 60.3222 3.37452 59.448 3.37452C58.4504 3.37452 57.7202 4.09443 57.7202 5.5034C57.7202 6.91236 58.4504 7.63227 59.448 7.63227C60.3222 7.63227 60.7953 7.24146 60.9598 6.60383H62.2865C62.05 8.18762 61.0112 9.13379 59.448 9.13379ZM63.4206 9.00009V2.0067H64.7987V4.41325H65.6832C67.195 4.41325 68.244 5.02003 68.244 6.60383C68.244 8.18762 67.195 9.00009 65.6832 9.00009H63.4206ZM64.7987 7.51914H65.5906C66.4339 7.51914 66.8453 7.20032 66.8453 6.57297C66.8453 5.93534 66.4339 5.67823 65.5906 5.67823H64.7987V7.51914ZM68.8919 9.00009V2.0067H70.27V9.00009H68.8919ZM74.2105 9.00009V2.0067H75.5886V6.56269L78.2729 2.0067H79.651V9.00009H78.2729V4.34126L75.5886 9.00009H74.2105ZM83.5291 9.13379C81.9144 9.13379 80.9374 8.23905 80.8037 6.63468H82.1098C82.223 7.38544 82.6858 7.70426 83.4674 7.70426C84.2593 7.70426 84.6809 7.39573 84.6809 6.80951C84.6809 6.2233 84.3107 5.98676 83.5805 5.98676H82.7475V4.89662H83.5702C84.2079 4.89662 84.537 4.62922 84.537 4.12529C84.537 3.63163 84.2181 3.30253 83.5085 3.30253C82.7886 3.30253 82.3567 3.67277 82.2127 4.33097H80.9066C81.0814 2.7986 81.9864 1.873 83.5599 1.873C85.0512 1.873 85.9253 2.70604 85.9253 3.94017C85.9253 4.67036 85.5448 5.16401 84.9895 5.37998C85.6271 5.58567 86.0899 6.14103 86.0899 6.94321C86.0899 8.23905 85.1437 9.13379 83.5291 9.13379ZM92.5711 9.13379C90.5039 9.13379 89.4343 7.50885 89.4343 5.5034C89.4343 3.49794 90.5039 1.873 92.5711 1.873C94.1343 1.873 95.173 2.81917 95.4096 4.40296H94.0829C93.9183 3.76533 93.4453 3.37452 92.5711 3.37452C91.5735 3.37452 90.8433 4.09443 90.8433 5.5034C90.8433 6.91236 91.5735 7.63227 92.5711 7.63227C93.4453 7.63227 93.9183 7.24146 94.0829 6.60383H95.4096C95.173 8.18762 94.1343 9.13379 92.5711 9.13379ZM96.5437 9.00009V2.0067H97.9218V6.56269L100.606 2.0067H101.984V9.00009H100.606V4.34126L97.9218 9.00009H96.5437ZM103.435 9.00009V2.0067H104.978L106.973 5.5651L108.958 2.0067H110.408V9.00009H108.999V4.55723L107.199 7.78653H106.562L104.752 4.55723V9.00009H103.435ZM111.843 9.00009V2.0067H117.201V9.00009H115.823V3.47737H113.221V9.00009H111.843ZM118.017 9.00009L120.598 2.0067H121.709L124.3 9.00009H122.778L122.264 7.57056H119.929L119.425 9.00009H118.017ZM120.341 6.41871H121.863L121.102 4.27955L120.341 6.41871ZM125.783 9.00009V3.47737H123.839V2.0067H129.115V3.47737H127.161V9.00009H125.783ZM130.167 9.00009V2.0067H131.545V6.56269L134.23 2.0067H135.608V9.00009H134.23V4.34126L131.545 9.00009H130.167ZM140.72 5.96619C140.35 6.32615 139.846 6.61411 138.982 6.61411C137.727 6.61411 136.925 5.99705 136.925 4.48524V2.0067H138.303V4.14585C138.303 4.91718 138.642 5.236 139.393 5.236C139.99 5.236 140.391 5.09202 140.72 4.85548V2.0067H142.098V9.00009H140.72V5.96619ZM143.538 9.00009V2.0067H144.916V4.63951H147.56V2.0067H148.938V9.00009H147.56V6.11017H144.916V9.00009H143.538ZM153.331 9.13379C151.161 9.13379 150.081 7.48828 150.081 5.5034C150.081 3.51851 151.161 1.873 153.331 1.873C155.511 1.873 156.622 3.51851 156.622 5.5034C156.622 7.48828 155.511 9.13379 153.331 9.13379ZM151.49 5.5034C151.49 6.94321 152.272 7.62198 153.331 7.62198C154.401 7.62198 155.213 6.94321 155.213 5.5034C155.213 4.06358 154.401 3.38481 153.331 3.38481C152.272 3.38481 151.49 4.06358 151.49 5.5034ZM157.773 9.00009V2.0067H159.151V6.56269L161.835 2.0067H163.214V9.00009H161.835V4.34126L159.151 9.00009H157.773ZM158.832 0.0835163H159.717C159.799 0.412617 160.005 0.566883 160.478 0.566883C160.951 0.566883 161.157 0.412617 161.239 0.0835163H162.123C162.031 1.00911 161.537 1.55419 160.478 1.55419C159.419 1.55419 158.925 1.00911 158.832 0.0835163ZM167.157 9.00009V2.0067H168.535V5.15373L170.592 2.0067H172.083L170.057 5.12287L172.33 9.00009H170.541L168.535 5.48283V9.00009H167.157ZM172.507 9.00009L175.088 2.0067H176.199L178.791 9.00009H177.269L176.754 7.57056H174.42L173.916 9.00009H172.507ZM174.831 6.41871H176.353L175.592 4.27955L174.831 6.41871ZM179.604 9.00009V2.0067H181.826C183.368 2.0067 184.417 2.69575 184.417 4.33097C184.417 5.96619 183.368 6.6244 181.826 6.6244H180.982V9.00009H179.604ZM180.982 5.35941H181.743C182.587 5.35941 183.019 5.05088 183.019 4.39268C183.019 3.74476 182.587 3.48765 181.743 3.48765H180.982V5.35941ZM187.034 9.00009V3.47737H185.09V2.0067H190.366V3.47737H188.412V9.00009H187.034ZM194.129 9.13379C191.959 9.13379 190.879 7.48828 190.879 5.5034C190.879 3.51851 191.959 1.873 194.129 1.873C196.309 1.873 197.42 3.51851 197.42 5.5034C197.42 7.48828 196.309 9.13379 194.129 9.13379ZM192.288 5.5034C192.288 6.94321 193.07 7.62198 194.129 7.62198C195.199 7.62198 196.011 6.94321 196.011 5.5034C196.011 4.06358 195.199 3.38481 194.129 3.38481C193.07 3.38481 192.288 4.06358 192.288 5.5034ZM198.571 9.00009V2.0067H199.949V7.52942H201.903V2.0067H203.281V7.52942H205.225V2.0067H206.603V9.00009H198.571ZM208.054 9.00009V2.0067H209.432V5.15373L211.489 2.0067H212.98L210.954 5.12287L213.227 9.00009H211.437L209.432 5.48283V9.00009H208.054ZM214.041 9.00009V2.0067H215.419V6.56269L218.104 2.0067H219.482V9.00009H218.104V4.34126L215.419 9.00009H214.041Z" fill="white"/>
<path d="M40.3454 76.6715C39.9752 77.0314 39.4712 77.3194 38.6074 77.3194C37.3527 77.3194 36.5505 76.7023 36.5505 75.1905V72.712H37.9286V74.8511C37.9286 75.6224 38.268 75.9413 39.0187 75.9413C39.6152 75.9413 40.0163 75.7973 40.3454 75.5607V72.712H41.7235V79.7054H40.3454V76.6715ZM43.1638 79.7054V72.712H44.5419V77.2679L47.2262 72.712H48.6043V79.7054H47.2262V75.0465L44.5419 79.7054H43.1638ZM50.0553 79.7054V72.712H55.4134V79.7054H54.0353V74.1826H51.4334V79.7054H50.0553ZM59.7048 79.839C57.6377 79.839 56.5681 78.2141 56.5681 76.2087C56.5681 74.2032 57.6377 72.5783 59.7048 72.5783C61.2681 72.5783 62.3068 73.5244 62.5433 75.1082H61.2166C61.0521 74.4706 60.579 74.0798 59.7048 74.0798C58.7073 74.0798 57.9771 74.7997 57.9771 76.2087C57.9771 77.6176 58.7073 78.3375 59.7048 78.3375C60.579 78.3375 61.0521 77.9467 61.2166 77.3091H62.5433C62.3068 78.8929 61.2681 79.839 59.7048 79.839ZM63.6774 79.7054V72.712H65.0555V75.1185H65.94C67.4518 75.1185 68.5008 75.7253 68.5008 77.3091C68.5008 78.8929 67.4518 79.7054 65.94 79.7054H63.6774ZM65.0555 78.2244H65.8474C66.6908 78.2244 67.1021 77.9056 67.1021 77.2782C67.1021 76.6406 66.6908 76.3835 65.8474 76.3835H65.0555V78.2244ZM69.1487 79.7054V72.712H70.5268V79.7054H69.1487ZM74.4674 79.7054V72.712H75.8455V77.2679L78.5297 72.712H79.9078V79.7054H78.5297V75.0465L75.8455 79.7054H74.4674ZM83.7859 79.839C82.1713 79.839 81.1943 78.9443 81.0606 77.3399H82.3667C82.4798 78.0907 82.9426 78.4095 83.7242 78.4095C84.5161 78.4095 84.9378 78.101 84.9378 77.5148C84.9378 76.9286 84.5675 76.692 83.8373 76.692H83.0043V75.6019H83.8271C84.4647 75.6019 84.7938 75.3345 84.7938 74.8305C84.7938 74.3369 84.475 74.0078 83.7654 74.0078C83.0454 74.0078 82.6135 74.378 82.4695 75.0362H81.1634C81.3382 73.5039 82.2433 72.5783 83.8168 72.5783C85.308 72.5783 86.1822 73.4113 86.1822 74.6454C86.1822 75.3756 85.8017 75.8693 85.2463 76.0852C85.8839 76.2909 86.3467 76.8463 86.3467 77.6485C86.3467 78.9443 85.4006 79.839 83.7859 79.839ZM92.8279 79.839C90.7608 79.839 89.6912 78.2141 89.6912 76.2087C89.6912 74.2032 90.7608 72.5783 92.8279 72.5783C94.3911 72.5783 95.4299 73.5244 95.6664 75.1082H94.3397C94.1752 74.4706 93.7021 74.0798 92.8279 74.0798C91.8303 74.0798 91.1001 74.7997 91.1001 76.2087C91.1001 77.6176 91.8303 78.3375 92.8279 78.3375C93.7021 78.3375 94.1752 77.9467 94.3397 77.3091H95.6664C95.4299 78.8929 94.3911 79.839 92.8279 79.839ZM96.8005 79.7054V72.712H98.1786V77.2679L100.863 72.712H102.241V79.7054H100.863V75.0465L98.1786 79.7054H96.8005ZM103.692 79.7054V72.712H105.235L107.23 76.2704L109.215 72.712H110.665V79.7054H109.256V75.2625L107.456 78.4918H106.818L105.008 75.2625V79.7054H103.692ZM112.1 79.7054V72.712H117.458V79.7054H116.08V74.1826H113.478V79.7054H112.1ZM118.273 79.7054L120.855 72.712H121.965L124.557 79.7054H123.035L122.521 78.2758H120.186L119.682 79.7054H118.273ZM120.598 77.124H122.12L121.359 74.9848L120.598 77.124ZM126.039 79.7054V74.1826H124.096V72.712H129.372V74.1826H127.418V79.7054H126.039ZM130.424 79.7054V72.712H131.802V77.2679L134.486 72.712H135.865V79.7054H134.486V75.0465L131.802 79.7054H130.424ZM140.977 76.6715C140.607 77.0314 140.103 77.3194 139.239 77.3194C137.984 77.3194 137.182 76.7023 137.182 75.1905V72.712H138.56V74.8511C138.56 75.6224 138.899 75.9413 139.65 75.9413C140.247 75.9413 140.648 75.7973 140.977 75.5607V72.712H142.355V79.7054H140.977V76.6715ZM143.795 79.7054V72.712H145.173V75.3448H147.816V72.712H149.194V79.7054H147.816V76.8154H145.173V79.7054H143.795ZM153.588 79.839C151.418 79.839 150.338 78.1935 150.338 76.2087C150.338 74.2238 151.418 72.5783 153.588 72.5783C155.768 72.5783 156.879 74.2238 156.879 76.2087C156.879 78.1935 155.768 79.839 153.588 79.839ZM151.747 76.2087C151.747 77.6485 152.529 78.3272 153.588 78.3272C154.658 78.3272 155.47 77.6485 155.47 76.2087C155.47 74.7688 154.658 74.0901 153.588 74.0901C152.529 74.0901 151.747 74.7688 151.747 76.2087ZM158.03 79.7054V72.712H159.408V77.2679L162.092 72.712H163.47V79.7054H162.092V75.0465L159.408 79.7054H158.03ZM159.089 70.7888H159.974C160.056 71.1179 160.262 71.2721 160.735 71.2721C161.208 71.2721 161.414 71.1179 161.496 70.7888H162.38C162.288 71.7144 161.794 72.2594 160.735 72.2594C159.675 72.2594 159.182 71.7144 159.089 70.7888ZM167.414 79.7054V72.712H168.792V75.859L170.849 72.712H172.34L170.314 75.8281L172.587 79.7054H170.797L168.792 76.1881V79.7054H167.414ZM172.764 79.7054L175.345 72.712H176.456L179.048 79.7054H177.525L177.011 78.2758H174.677L174.173 79.7054H172.764ZM175.088 77.124H176.61L175.849 74.9848L175.088 77.124ZM179.861 79.7054V72.712H182.082C183.625 72.712 184.674 73.401 184.674 75.0362C184.674 76.6715 183.625 77.3297 182.082 77.3297H181.239V79.7054H179.861ZM181.239 76.0647H182C182.843 76.0647 183.275 75.7561 183.275 75.0979C183.275 74.45 182.843 74.1929 182 74.1929H181.239V76.0647ZM187.291 79.7054V74.1826H185.347V72.712H190.623V74.1826H188.669V79.7054H187.291ZM194.386 79.839C192.216 79.839 191.136 78.1935 191.136 76.2087C191.136 74.2238 192.216 72.5783 194.386 72.5783C196.566 72.5783 197.677 74.2238 197.677 76.2087C197.677 78.1935 196.566 79.839 194.386 79.839ZM192.545 76.2087C192.545 77.6485 193.327 78.3272 194.386 78.3272C195.455 78.3272 196.268 77.6485 196.268 76.2087C196.268 74.7688 195.455 74.0901 194.386 74.0901C193.327 74.0901 192.545 74.7688 192.545 76.2087ZM198.828 79.7054V72.712H200.206V78.2347H202.16V72.712H203.538V78.2347H205.482V72.712H206.86V79.7054H198.828ZM208.31 79.7054V72.712H209.689V75.859L211.745 72.712H213.237L211.211 75.8281L213.484 79.7054H211.694L209.689 76.1881V79.7054H208.31ZM214.298 79.7054V72.712H215.676V77.2679L218.36 72.712H219.738V79.7054H218.36V75.0465L215.676 79.7054H214.298Z" fill="white"/>
</svg>
